<svg xmlns="http://www.w3.org/2000/svg" xmlns:xlink="http://www.w3.org/1999/xlink" xmlns:lucid="lucid" width="2038.67" height="1575.33"><g transform="translate(0 0)" lucid:page-tab-id="0_0"><path d="M764.8 471.33c0-4.4 3.58-8 8-8h261.7c4.42 0 8 3.6 8 8v301c0 4.42-3.58 8-8 8H772.8c-4.42 0-8-3.58-8-8z" stroke="#333" fill="#fff"/><path d="M764.8 528.76h277.7m-277.7 166.3h277.7" stroke="#333" fill="none"/><use xlink:href="#a" transform="matrix(1,0,0,1,772.7982508740486,471.33333333333337) translate(67.01995884773663 16.76296296296296)"/><use xlink:href="#b" transform="matrix(1,0,0,1,772.7982508740486,471.33333333333337) translate(81.89238683127573 41.47407407407407)"/><use xlink:href="#c" transform="matrix(1,0,0,1,776.7982508740486,536.7555555555556) translate(0 54.907407407407405)"/><use xlink:href="#d" transform="matrix(1,0,0,1,776.7982508740486,536.7555555555556) translate(12.52716049382716 54.907407407407405)"/><use xlink:href="#e" transform="matrix(1,0,0,1,776.7982508740486,536.7555555555556) translate(84.48683127572016 54.907407407407405)"/><use xlink:href="#f" transform="matrix(1,0,0,1,776.7982508740486,536.7555555555556) translate(95.92716049382716 54.907407407407405)"/><use xlink:href="#g" transform="matrix(1,0,0,1,776.7982508740486,536.7555555555556) translate(0 79.61851851851853)"/><use xlink:href="#h" transform="matrix(1,0,0,1,776.7982508740486,536.7555555555556) translate(12.52716049382716 79.61851851851853)"/><use xlink:href="#i" transform="matrix(1,0,0,1,776.7982508740486,536.7555555555556) translate(131.44938271604937 79.61851851851853)"/><use xlink:href="#j" transform="matrix(1,0,0,1,776.7982508740486,536.7555555555556) translate(142.88971193415637 79.61851851851853)"/><use xlink:href="#g" transform="matrix(1,0,0,1,776.7982508740486,536.7555555555556) translate(0 104.32962962962964)"/><use xlink:href="#k" transform="matrix(1,0,0,1,776.7982508740486,536.7555555555556) translate(12.52716049382716 104.32962962962964)"/><use xlink:href="#i" transform="matrix(1,0,0,1,776.7982508740486,536.7555555555556) translate(148.32386831275718 104.32962962962964)"/><use xlink:href="#l" transform="matrix(1,0,0,1,776.7982508740486,536.7555555555556) translate(159.76419753086418 104.32962962962964)"/><use xlink:href="#m" transform="matrix(1,0,0,1,776.7982508740486,703.0740740740741) translate(0 39.11851851851852)"/><use xlink:href="#n" transform="matrix(1,0,0,1,776.7982508740486,703.0740740740741) translate(17.732510288065843 39.11851851851852)"/><use xlink:href="#e" transform="matrix(1,0,0,1,776.7982508740486,703.0740740740741) translate(159.36378600823042 39.11851851851852)"/><use xlink:href="#o" transform="matrix(1,0,0,1,776.7982508740486,703.0740740740741) translate(170.80411522633742 39.11851851851852)"/><path d="M764.8 170.17c0-4.42 3.58-8 8-8h261.7c4.42 0 8 3.58 8 8v209c0 4.4-3.58 8-8 8H772.8c-4.42 0-8-3.6-8-8z" stroke="#333" fill="#fff"/><path d="M764.8 202.88h277.7M764.8 301h277.7" stroke="#333" fill="none"/><use xlink:href="#p" transform="matrix(1,0,0,1,772.7982508740486,170.16666666666669) translate(96.1641975308642 16.61851851851852)"/><use xlink:href="#c" transform="matrix(1,0,0,1,776.7982508740486,210.8777777777778) translate(0 45.61851851851852)"/><use xlink:href="#q" transform="matrix(1,0,0,1,776.7982508740486,210.8777777777778) translate(12.52716049382716 45.61851851851852)"/><use xlink:href="#e" transform="matrix(1,0,0,1,776.7982508740486,210.8777777777778) translate(90.26419753086421 45.61851851851852)"/><use xlink:href="#r" transform="matrix(1,0,0,1,776.7982508740486,210.8777777777778) translate(101.7045267489712 45.61851851851852)"/><use xlink:href="#m" transform="matrix(1,0,0,1,776.7982508740486,308.99872495446266) translate(0 39.61851851851852)"/><use xlink:href="#n" transform="matrix(1,0,0,1,776.7982508740486,308.99872495446266) translate(17.732510288065843 39.61851851851852)"/><use xlink:href="#e" transform="matrix(1,0,0,1,776.7982508740486,308.99872495446266) translate(159.36378600823042 39.61851851851852)"/><use xlink:href="#o" transform="matrix(1,0,0,1,776.7982508740486,308.99872495446266) translate(170.80411522633742 39.61851851851852)"/><path d="M92.67 216.5c0-4.42 3.58-8 8-8h366.16c4.42 0 8 3.58 8 8v326c0 4.42-3.58 8-8 8H100.67c-4.42 0-8-3.58-8-8z" stroke="#333" fill="#fff"/><path d="M92.67 249.2h382.16M92.67 440.25h382.16" stroke="#333" fill="none"/><use xlink:href="#s" transform="matrix(1,0,0,1,100.66666666666669,216.5) translate(144.0880658436214 16.61851851851852)"/><use xlink:href="#c" transform="matrix(1,0,0,1,104.66666666666669,257.2111111111111) translate(0 55.05185185185185)"/><use xlink:href="#t" transform="matrix(1,0,0,1,104.66666666666669,257.2111111111111) translate(12.52716049382716 55.05185185185185)"/><use xlink:href="#e" transform="matrix(1,0,0,1,104.66666666666669,257.2111111111111) translate(130.24814814814815 55.05185185185185)"/><use xlink:href="#u" transform="matrix(1,0,0,1,104.66666666666669,257.2111111111111) translate(141.68847736625514 55.05185185185185)"/><use xlink:href="#c" transform="matrix(1,0,0,1,104.66666666666669,257.2111111111111) translate(0 79.76296296296297)"/><use xlink:href="#v" transform="matrix(1,0,0,1,104.66666666666669,257.2111111111111) translate(12.52716049382716 79.76296296296297)"/><use xlink:href="#e" transform="matrix(1,0,0,1,104.66666666666669,257.2111111111111) translate(107.36748971193416 79.76296296296297)"/><use xlink:href="#w" transform="matrix(1,0,0,1,104.66666666666669,257.2111111111111) translate(118.80781893004115 79.76296296296297)"/><use xlink:href="#c" transform="matrix(1,0,0,1,104.66666666666669,257.2111111111111) translate(0 104.47407407407408)"/><use xlink:href="#x" transform="matrix(1,0,0,1,104.66666666666669,257.2111111111111) translate(12.52716049382716 104.47407407407408)"/><use xlink:href="#e" transform="matrix(1,0,0,1,104.66666666666669,257.2111111111111) translate(99.35925925925926 104.47407407407408)"/><use xlink:href="#y" transform="matrix(1,0,0,1,104.66666666666669,257.2111111111111) translate(110.79958847736626 104.47407407407408)"/><use xlink:href="#z" transform="matrix(1,0,0,1,104.66666666666669,257.2111111111111) translate(0 129.1851851851852)"/><use xlink:href="#m" transform="matrix(1,0,0,1,104.66666666666669,448.24074074074076) translate(0 39.26296296296296)"/><use xlink:href="#A" transform="matrix(1,0,0,1,104.66666666666669,448.24074074074076) translate(17.732510288065843 39.26296296296296)"/><use xlink:href="#e" transform="matrix(1,0,0,1,104.66666666666669,448.24074074074076) translate(249.51358024691353 39.26296296296296)"/><use xlink:href="#B" transform="matrix(1,0,0,1,104.66666666666669,448.24074074074076) translate(260.9539094650205 39.26296296296296)"/><use xlink:href="#m" transform="matrix(1,0,0,1,104.66666666666669,448.24074074074076) translate(0 63.974074074074075)"/><use xlink:href="#C" transform="matrix(1,0,0,1,104.66666666666669,448.24074074074076) translate(17.732510288065843 63.974074074074075)"/><use xlink:href="#e" transform="matrix(1,0,0,1,104.66666666666669,448.24074074074076) translate(295.2748971193415 63.974074074074075)"/><use xlink:href="#D" transform="matrix(1,0,0,1,104.66666666666669,448.24074074074076) translate(306.7152263374485 63.974074074074075)"/><path d="M530.25 275.17h-25.87l-2.96.6-2.38 1.6-1.6 2.38-.6 2.97v35.7l-.66 3.25-1.83 2.7-2.7 1.83-3.27.66h-12.55v-1h12.45l2.97-.6 2.38-1.6 1.6-2.4.6-2.95v-35.68l.66-3.26 1.82-2.7 2.7-1.84 3.26-.65h25.97zm203.67 0H596.27v-1h137.65z" fill="#333"/><path d="M763.6 274.67l-14.86 14.85-15.15-14.85 15.14-14.85z" fill="#fff"/><path d="M764.3 274.67l-15.55 15.55-15.87-15.55 15.87-15.56zm-30 0l14.44 14.14 14.14-14.13-14.14-14.15zM475.85 326.86h-.52v-1h.52z" fill="#333"/><use xlink:href="#E" transform="matrix(1,0,0,1,530.2544336673224,263.85555555555555) translate(0 14.414814814814816)"/><use xlink:href="#F" transform="matrix(1,0,0,1,530.2544336673224,263.85555555555555) translate(45.99727366255144 14.414814814814816)"/><use xlink:href="#G" transform="matrix(1,0,0,1,697.441045714708,249.0444444444445) translate(0 14.414814814814816)"/><use xlink:href="#H" transform="matrix(1,0,0,1,475.8194447777777,330.35715652506707) translate(0 14.414814814814816)"/><path d="M1367.48 372.84l-324-98.03" stroke="#333" fill="none"/><path d="M1388.56 379.22l-24.28 5.94 7.37-24.36z" stroke="#333" fill="#fff"/><path d="M1043.64 274.34l-.3.95-.34-.1v-1.06z" fill="#333"/><path d="M509.67 35.17c0-6.63 5.37-12 12-12h936.17c6.63 0 12 5.37 12 12v39.07c0 6.63-5.37 12-12 12H521.67c-6.63 0-12-5.37-12-12z" stroke="#000" stroke-opacity="0" stroke-width="2" fill="#fff" fill-opacity="0"/><use xlink:href="#I" transform="matrix(1,0,0,1,514.6666666666667,28.16666666666668) translate(293.8561728395062 34.83611111111111)"/><use xlink:href="#J" transform="matrix(1,0,0,1,514.6666666666667,28.16666666666668) translate(442.9808641975309 34.83611111111111)"/><use xlink:href="#K" transform="matrix(1,0,0,1,514.6666666666667,28.16666666666668) translate(487.51234567901236 34.83611111111111)"/><use xlink:href="#L" transform="matrix(1,0,0,1,514.6666666666667,28.16666666666668) translate(590.4753086419753 34.83611111111111)"/><path d="M764.8 99.04c0-6.63 5.37-12 12-12h430c6.63 0 12 5.37 12 12v9.92c0 6.63-5.37 12-12 12h-430c-6.63 0-12-5.37-12-12z" stroke="#000" stroke-opacity="0" stroke-width="2" fill="#fff" fill-opacity="0"/><use xlink:href="#M" transform="matrix(1,0,0,1,769.7982508740486,92.03602952542438) translate(110.30969650205759 15.914814814814816)"/><use xlink:href="#N" transform="matrix(1,0,0,1,769.7982508740486,92.03602952542438) translate(166.167103909465 15.914814814814816)"/><use xlink:href="#O" transform="matrix(1,0,0,1,769.7982508740486,92.03602952542438) translate(219.07147633744853 15.914814814814816)"/><use xlink:href="#P" transform="matrix(1,0,0,1,769.7982508740486,92.03602952542438) translate(233.73654835390946 15.914814814814816)"/><use xlink:href="#Q" transform="matrix(1,0,0,1,769.7982508740486,92.03602952542438) translate(274.62857510288063 15.914814814814816)"/><use xlink:href="#R" transform="matrix(1,0,0,1,769.7982508740486,92.03602952542438) translate(294.6491512345679 15.914814814814816)"/><path d="M732.06 78.76h519.58M732.1 78.76h-1.04M1251.6 78.76h1.04" stroke="#b2b2b2" stroke-width="2" fill="none"/><path d="M1390 275h254.83v209H1390z" stroke="#333" fill="#fff"/><path d="M1390 334.2h254.83" stroke="#333" fill="none"/><g><use xlink:href="#S" transform="matrix(1,0,0,1,1398,283) translate(63.574999999999996 14.799999999999999)"/><use xlink:href="#T" transform="matrix(1,0,0,1,1398,283) translate(84.05 36.4)"/></g><g><use xlink:href="#g" transform="matrix(1,0,0,1,1402,342.2) translate(0 46.407407407407405)"/><use xlink:href="#U" transform="matrix(1,0,0,1,1402,342.2) translate(12.52716049382716 46.407407407407405)"/><use xlink:href="#i" transform="matrix(1,0,0,1,1402,342.2) translate(99.35925925925926 46.407407407407405)"/><use xlink:href="#V" transform="matrix(1,0,0,1,1402,342.2) translate(110.79958847736626 46.407407407407405)"/><use xlink:href="#g" transform="matrix(1,0,0,1,1402,342.2) translate(0 71.11851851851853)"/><use xlink:href="#W" transform="matrix(1,0,0,1,1402,342.2) translate(12.52716049382716 71.11851851851853)"/><use xlink:href="#V" transform="matrix(1,0,0,1,1402,342.2) translate(106.1662551440329 71.11851851851853)"/><use xlink:href="#g" transform="matrix(1,0,0,1,1402,342.2) translate(0 95.82962962962964)"/><use xlink:href="#X" transform="matrix(1,0,0,1,1402,342.2) translate(12.52716049382716 95.82962962962964)"/><use xlink:href="#Y" transform="matrix(1,0,0,1,1402,342.2) translate(122.29711934156379 95.82962962962964)"/></g><path d="M502.8 540l2.72 1.83 1.82 2.7.66 3.27v28l.6 2.96 1.6 2.38 2.38 1.6 2.97.6h19.24v1h-19.35l-3.26-.65-2.72-1.84-1.82-2.7-.66-3.27v-28l-.6-2.97-1.6-2.38-2.38-1.6-2.97-.6h-23.62v-1h23.72zm231.12 43.34v1h-133.1v-1z" fill="#333"/><path d="M763.6 583.84l-14.86 14.85-15.15-14.86L748.73 569z" fill="#fff"/><path d="M764.3 583.84l-15.55 15.56-15.87-15.56 15.87-15.55zm-30 0L748.75 598l14.14-14.16-14.14-14.14zM475.85 540.35h-.52v-1h.52z" fill="#333"/><g><use xlink:href="#E" transform="matrix(1,0,0,1,534.7936414214952,573.0331350885102) translate(0 14.414814814814816)"/><use xlink:href="#F" transform="matrix(1,0,0,1,534.7936414214952,573.0331350885102) translate(45.99727366255144 14.414814814814816)"/></g><g><use xlink:href="#G" transform="matrix(1,0,0,1,708.1767165193525,558.2220239773992) translate(0 14.414814814814816)"/></g><g><use xlink:href="#H" transform="matrix(1,0,0,1,472.4722222222222,548.192706673428) translate(0 14.414814814814816)"/></g><path d="M1368.7 444.84l-325.25 153.2" stroke="#333" fill="none"/><path d="M1388.6 435.45l-14.03 20.7-10.85-23.04z" stroke="#333" fill="#fff"/><path d="M1043.68 598.5l-.68.3v-1.1l.25-.1z" fill="#333"/><path d="M474.83 888.33c0-4.4 3.6-8 8-8H721.5c4.42 0 8 3.6 8 8v193c0 4.42-3.58 8-8 8H482.83c-4.4 0-8-3.58-8-8z" stroke="#333" fill="#fff"/><path d="M474.83 921.04H729.5m-254.67 84.22H729.5" stroke="#333" fill="none"/><g><use xlink:href="#Z" transform="matrix(1,0,0,1,482.8333333333333,888.3333333333335) translate(81.20349794238683 16.61851851851852)"/></g><path d="M757.07 798.33l-67.38 81.12" stroke="#333" fill="none"/><path d="M771.13 781.4l-3.96 24.67-19.58-16.26z" stroke="#333" fill="#fff"/><path d="M690.08 879.76l-.06.07h-1.3l.6-.7z" fill="#333"/><path d="M787.83 888.33c0-4.4 3.6-8 8-8h238.67c4.42 0 8 3.6 8 8v193c0 4.42-3.58 8-8 8H795.83c-4.4 0-8-3.58-8-8z" stroke="#333" fill="#fff"/><path d="M787.83 921.04h254.67m-254.67 84.22h254.67" stroke="#333" fill="none"/><g><use xlink:href="#aa" transform="matrix(1,0,0,1,795.8333333333331,888.3333333333335) translate(79.5732510288066 16.61851851851852)"/></g><path d="M1100.83 888.33c0-4.4 3.6-8 8-8h238.67c4.42 0 8 3.6 8 8v193c0 4.42-3.58 8-8 8h-238.67c-4.4 0-8-3.58-8-8z" stroke="#333" fill="#fff"/><path d="M1100.83 921.04h254.67M1100.83 1005h254.67" stroke="#333" fill="none"/><g><use xlink:href="#ab" transform="matrix(1,0,0,1,1108.833333333333,888.3333333333335) translate(93.21584362139919 16.61851851851852)"/></g><path d="M903.65 803.83v75.5" stroke="#333" fill="none"/><path d="M903.65 781.82l12.72 21.52h-25.45z" stroke="#333" fill="#fff"/><path d="M904.14 879.32v.5h-1v-.5z" fill="#333"/><path d="M1006.45 789.5l221.25 90.14" stroke="#333" fill="none"/><path d="M986.06 781.2l24.73-3.66-9.6 23.57z" stroke="#333" fill="#fff"/><path d="M1229.5 879.83h-1.9l.28-.65z" fill="#333"/><path d="M1390 587.17c0-4.42 3.58-8 8-8h285.17c4.4 0 8 3.58 8 8v291c0 4.4-3.6 8-8 8H1398c-4.42 0-8-3.6-8-8z" stroke="#333" fill="#fff"/><path d="M1390 619.88h301.17M1390 802.68h301.17" stroke="#333" fill="none"/><g><use xlink:href="#ac" transform="matrix(1,0,0,1,1398,587.1666666666667) translate(111.05288065843621 16.61851851851852)"/></g><g><use xlink:href="#g" transform="matrix(1,0,0,1,1402,627.8777777777779) translate(0 38.196296296296296)"/><use xlink:href="#ad" transform="matrix(1,0,0,1,1402,627.8777777777779) translate(12.52716049382716 38.196296296296296)"/><use xlink:href="#i" transform="matrix(1,0,0,1,1402,627.8777777777779) translate(76.5358024691358 38.196296296296296)"/><use xlink:href="#ae" transform="matrix(1,0,0,1,1402,627.8777777777779) translate(87.9761316872428 38.196296296296296)"/><use xlink:href="#g" transform="matrix(1,0,0,1,1402,627.8777777777779) translate(0 62.90740740740741)"/><use xlink:href="#af" transform="matrix(1,0,0,1,1402,627.8777777777779) translate(12.52716049382716 62.90740740740741)"/><use xlink:href="#i" transform="matrix(1,0,0,1,1402,627.8777777777779) translate(134.938683127572 62.90740740740741)"/><use xlink:href="#ae" transform="matrix(1,0,0,1,1402,627.8777777777779) translate(146.379012345679 62.90740740740741)"/><use xlink:href="#g" transform="matrix(1,0,0,1,1402,627.8777777777779) translate(0 87.61851851851853)"/><use xlink:href="#ag" transform="matrix(1,0,0,1,1402,627.8777777777779) translate(12.52716049382716 87.61851851851853)"/><use xlink:href="#i" transform="matrix(1,0,0,1,1402,627.8777777777779) translate(80.02510288065844 87.61851851851853)"/><use xlink:href="#j" transform="matrix(1,0,0,1,1402,627.8777777777779) translate(91.46543209876543 87.61851851851853)"/><use xlink:href="#g" transform="matrix(1,0,0,1,1402,627.8777777777779) translate(0 112.32962962962964)"/><use xlink:href="#ah" transform="matrix(1,0,0,1,1402,627.8777777777779) translate(12.52716049382716 112.32962962962964)"/><use xlink:href="#i" transform="matrix(1,0,0,1,1402,627.8777777777779) translate(215.13539094650204 112.32962962962964)"/><use xlink:href="#V" transform="matrix(1,0,0,1,1402,627.8777777777779) translate(226.57572016460904 112.32962962962964)"/><use xlink:href="#ai" transform="matrix(1,0,0,1,1402,627.8777777777779) translate(0 137.04074074074074)"/></g><g><use xlink:href="#m" transform="matrix(1,0,0,1,1402,810.6833333333334) translate(0 38.11851851851852)"/><use xlink:href="#aj" transform="matrix(1,0,0,1,1402,810.6833333333334) translate(17.732510288065843 38.11851851851852)"/><use xlink:href="#e" transform="matrix(1,0,0,1,1402,810.6833333333334) translate(177.55390946502058 38.11851851851852)"/><use xlink:href="#ak" transform="matrix(1,0,0,1,1402,810.6833333333334) translate(188.99423868312758 38.11851851851852)"/></g><path d="M1388.6 715.62h-305.93c-4.42 0-8-3.6-8-8v-77.8c0-4.4-3.6-8-8-8h-23.17" stroke="#333" fill="none"/><path d="M1371.3 725.8l17.22-10.18-17.22-10.2" stroke="#333" fill="none"/><path d="M1043.5 622.33h-.5v-1h.5z" fill="#333"/><g><use xlink:href="#al" transform="matrix(1,0,0,1,1317.8257819696694,689.9933288981449) translate(0 14.414814814814816)"/></g><g><use xlink:href="#al" transform="matrix(1,0,0,1,1042.7937844160658,714.37159098157) translate(0 14.414814814814816)"/></g><path d="M903.65 462.33v-52.1" stroke="#333" fill="none"/><path d="M904.15 462.83h-1v-.5h1z" fill="#333"/><path d="M903.65 395.45l4.63 14.27H899z" stroke="#333" fill="#333"/><defs><path fill="#333" d="M22-91v-56l180-69v40L56-119l146 57v40" id="am"/><path fill="#333" d="M166-52c-4 17 5 29 24 23l-3 27c-30 11-74 1-67-34C105-15 91 4 56 4 23 4 3-15 2-49c0-64 63-67 128-67 10-22 3-53-29-45-13 3-22 10-25 24l-46-5c5-64 156-77 153 0-1 33-11 60-17 90zM97-88c-44-9-64 57-19 57 31 0 42-28 47-57H97" id="an"/><path fill="#333" d="M87-160c15-17 32-34 63-34 99 1 59 172-1 192-36 12-78 0-87-29L54 0H6l52-261h49zm71 38c0-24-5-37-29-37-46 0-55 46-57 89-1 25 12 40 35 40 44 0 51-50 51-92" id="ao"/><path fill="#333" d="M144-137c-1-29-70-35-71-2 16 41 103 10 103 80C176 9 79 16 32-9 18-17 9-31 4-48l44-6c3 32 80 36 82 1-15-42-103-11-103-82 0-77 157-79 161-8" id="ap"/><path fill="#333" d="M72-63c-8 23 5 39 32 30L98-1C54 14 12-6 23-64l18-93H15l7-33h28l24-45h31l-8 45h35l-6 33H90" id="aq"/><path fill="#333" d="M84-151c13-25 34-51 72-40l-8 41C67-170 71-64 56 0H6l36-190h47" id="ar"/><path fill="#333" d="M67-101c-8 29-7 73 27 71 23-2 32-16 39-37l48 9C170-19 141 4 91 4 36 4 7-28 12-86c6-75 61-124 140-103 26 7 40 29 43 59l-50 4c-1-20-9-34-29-34-35 0-41 29-49 59" id="as"/><path fill="#333" d="M22-22v-40l146-57-146-57v-40l180 69v56" id="at"/><g id="a"><use transform="matrix(0.05720164609053498,0,0,0.05720164609053498,0,0)" xlink:href="#am"/><use transform="matrix(0.05720164609053498,0,0,0.05720164609053498,12.012345679012345,0)" xlink:href="#am"/><use transform="matrix(0.05720164609053498,0,0,0.05720164609053498,24.02469135802469,0)" xlink:href="#an"/><use transform="matrix(0.05720164609053498,0,0,0.05720164609053498,35.465020576131685,0)" xlink:href="#ao"/><use transform="matrix(0.05720164609053498,0,0,0.05720164609053498,47.992181069958846,0)" xlink:href="#ap"/><use transform="matrix(0.05720164609053498,0,0,0.05720164609053498,59.43251028806584,0)" xlink:href="#aq"/><use transform="matrix(0.05720164609053498,0,0,0.05720164609053498,66.2395061728395,0)" xlink:href="#ar"/><use transform="matrix(0.05720164609053498,0,0,0.05720164609053498,74.24773662551439,0)" xlink:href="#an"/><use transform="matrix(0.05720164609053498,0,0,0.05720164609053498,85.68806584362139,0)" xlink:href="#as"/><use transform="matrix(0.05720164609053498,0,0,0.05720164609053498,97.12839506172838,0)" xlink:href="#aq"/><use transform="matrix(0.05720164609053498,0,0,0.05720164609053498,103.93539094650204,0)" xlink:href="#at"/><use transform="matrix(0.05720164609053498,0,0,0.05720164609053498,115.94773662551438,0)" xlink:href="#at"/></g><path fill="#333" d="M6 0l48-248h195l-8 40H98l-12 63h132l-7 40H79L66-40h150l-8 40H6" id="au"/><path fill="#333" d="M255-194c90 0 29 129 24 194h-49l25-136c-7-39-53-14-60 9-12 38-18 85-28 127h-49l25-136c2-29-39-23-50-7C69-108 68-47 56 0H6l36-190h48c-1 10-6 24-4 32 12-20 27-36 57-36s46 15 50 41c14-21 29-41 62-41" id="av"/><path fill="#333" d="M156-122c2-23-7-37-28-37-47 0-58 44-58 89 0 24 12 40 36 40 43 0 47-49 50-92zM-8 75l50-265h48c0 10-3 24-3 30 22-50 127-45 121 29-6 73-21 135-92 135-29 0-46-14-55-35L41 75H-8" id="aw"/><path fill="#333" d="M6 0l51-261h49L55 0H6" id="ax"/><path fill="#333" d="M114-194c63-2 87 48 72 110H63c-3 28 1 55 31 54 21-1 32-13 37-29l44 13C160-14 137 4 91 4 41 4 11-22 11-73c0-71 33-119 103-121zm30 77c14-47-50-61-67-22-3 6-6 13-8 22h75" id="ay"/><path fill="#333" d="M132-28C118-9 101 4 69 4 30 4 10-23 10-62c0-70 24-129 92-132 31-1 47 14 56 35l19-102h49L179 0h-49zM62-69c0 22 7 39 29 39 45-2 54-45 57-90 2-27-10-40-33-40-44 0-53 48-53 91" id="az"/><path fill="#333" d="M124-194c51 0 84 22 84 74C207-44 167 4 94 4 43 4 11-23 11-74c0-74 41-120 113-120zM99-30c46 0 58-42 58-86 0-27-11-44-37-44-44 0-55 40-57 84-1 27 10 45 36 46" id="aA"/><g id="b"><use transform="matrix(0.05720164609053498,0,0,0.05720164609053498,0,0)" xlink:href="#au"/><use transform="matrix(0.05720164609053498,0,0,0.05720164609053498,13.728395061728394,0)" xlink:href="#av"/><use transform="matrix(0.05720164609053498,0,0,0.05720164609053498,32.032921810699584,0)" xlink:href="#aw"/><use transform="matrix(0.05720164609053498,0,0,0.05720164609053498,44.560082304526745,0)" xlink:href="#ax"/><use transform="matrix(0.05720164609053498,0,0,0.05720164609053498,50.28024691358024,0)" xlink:href="#ay"/><use transform="matrix(0.05720164609053498,0,0,0.05720164609053498,61.72057613168724,0)" xlink:href="#an"/><use transform="matrix(0.05720164609053498,0,0,0.05720164609053498,73.16090534979423,0)" xlink:href="#az"/><use transform="matrix(0.05720164609053498,0,0,0.05720164609053498,85.68806584362139,0)" xlink:href="#aA"/></g><path fill="#333" d="M18-82l6-28h88l-6 28H18" id="aB"/><use transform="matrix(0.05720164609053498,0,0,0.05720164609053498,0,0)" xlink:href="#aB" id="c"/><path fill="#333" d="M-28 44V31h207v13H-28" id="aC"/><path fill="#333" d="M6 0l50-261h32L37 0H6" id="aD"/><path fill="#333" d="M111-194c62-3 86 47 72 106H45c-7 38 6 69 45 68 27-1 43-14 53-32l24 11C152-15 129 4 87 4 38 3 12-23 12-71c0-70 32-119 99-123zm44 81c14-66-71-72-95-28-4 8-8 17-11 28h106" id="aE"/><path fill="#333" d="M103-194c29 0 47 14 56 36 2-11 5-23 8-32h30L160-5C157 61 82 97 21 62 9 55 4 45 1 30l28-7c7 42 83 31 92-3 4-16 9-38 13-55-13 20-29 36-62 36-40 0-60-25-60-64 0-71 23-131 91-131zm4 24c-53 0-58 54-61 104-2 27 10 44 36 44 49 0 65-50 67-102 1-29-15-46-42-46" id="aF"/><path fill="#333" d="M165-48c-4 18 1 34 23 27l-3 20c-29 8-62 0-52-35h-2C116-14 99 4 63 4 30 4 8-16 8-49c0-68 71-67 138-67 10-26 0-56-31-54-26 1-42 9-47 31l-32-5c8-67 160-71 144 15-5 28-9 54-15 81zM42-50c3 52 80 24 89-6 7-12 7-24 11-38-47 1-103-4-100 44" id="aG"/><path fill="#333" d="M51-231l6-30h31l-6 30H51zM33 24C28 60 2 84-40 72c3-12-1-29 18-22C-5 49-1 37 2 19l41-209h32" id="aH"/><path fill="#333" d="M30-147c31-64 166-65 159 27C183-49 158 1 86 4 9 8 1-88 30-147zM88-20c53 0 68-48 68-100 0-31-11-51-44-50-52 1-68 46-68 97 0 32 13 53 44 53" id="aI"/><g id="d"><use transform="matrix(0.05720164609053498,0,0,0.05720164609053498,0,0)" xlink:href="#aC"/><use transform="matrix(0.05720164609053498,0,0,0.05720164609053498,11.440329218106996,0)" xlink:href="#aD"/><use transform="matrix(0.05720164609053498,0,0,0.05720164609053498,15.959259259259259,0)" xlink:href="#aE"/><use transform="matrix(0.05720164609053498,0,0,0.05720164609053498,27.399588477366255,0)" xlink:href="#aF"/><use transform="matrix(0.05720164609053498,0,0,0.05720164609053498,38.83991769547325,0)" xlink:href="#aG"/><use transform="matrix(0.05720164609053498,0,0,0.05720164609053498,50.28024691358024,0)" xlink:href="#aH"/><use transform="matrix(0.05720164609053498,0,0,0.05720164609053498,54.7991769547325,0)" xlink:href="#aI"/></g><path fill="#333" d="M44-154l7-36h35l-8 36H44zM14 0l7-36h35L49 0H14" id="aJ"/><use transform="matrix(0.05720164609053498,0,0,0.05720164609053498,0,0)" xlink:href="#aJ" id="e"/><path fill="#333" d="M50-231l6-30h32l-6 30H50zM6 0l37-190h31L37 0H6" id="aK"/><path fill="#333" d="M67-158c22-48 132-52 116 29L158 0h-32l25-140c3-38-53-32-70-12C52-117 51-52 38 0H6l36-190h30" id="aL"/><path fill="#333" d="M51-54c-9 22 5 41 31 30L79-1C43 14 10-4 19-52l22-115H19l5-23h22l19-43h21l-9 43h35l-4 23H73" id="aM"/><g id="f"><use transform="matrix(0.05720164609053498,0,0,0.05720164609053498,0,0)" xlink:href="#aK"/><use transform="matrix(0.05720164609053498,0,0,0.05720164609053498,4.518930041152263,0)" xlink:href="#aL"/><use transform="matrix(0.05720164609053498,0,0,0.05720164609053498,15.959259259259259,0)" xlink:href="#aM"/></g><path fill="#333" d="M16-82v-28h88v28H16" id="aN"/><use transform="matrix(0.05720164609053498,0,0,0.05720164609053498,0,0)" xlink:href="#aN" id="g"/><path fill="#333" d="M-5 72V49h209v23H-5" id="aO"/><path fill="#333" d="M141-36C126-15 110 5 73 4 37 3 15-17 15-53c-1-64 63-63 125-63 3-35-9-54-41-54-24 1-41 7-42 31l-33-3c5-37 33-52 76-52 45 0 72 20 72 64v82c-1 20 7 32 28 27v20c-31 9-61-2-59-35zM48-53c0 20 12 33 32 33 41-3 63-29 60-74-43 2-92-5-92 41" id="aP"/><path fill="#333" d="M117-194c89-4 53 116 60 194h-32v-121c0-31-8-49-39-48C34-167 62-67 57 0H25l-1-190h30c1 10-1 24 2 32 11-22 29-35 61-36" id="aQ"/><path fill="#333" d="M59-47c-2 24 18 29 38 22v24C64 9 27 4 27-40v-127H5v-23h24l9-43h21v43h35v23H59v120" id="aR"/><path fill="#333" d="M24-231v-30h32v30H24zM24 0v-190h32V0H24" id="aS"/><path fill="#333" d="M177-190C167-65 218 103 67 71c-23-6-38-20-44-43l32-5c15 47 100 32 89-28v-30C133-14 115 1 83 1 29 1 15-40 15-95c0-56 16-97 71-98 29-1 48 16 59 35 1-10 0-23 2-32h30zM94-22c36 0 50-32 50-73 0-42-14-75-50-75-39 0-46 34-46 75s6 73 46 73" id="aT"/><path fill="#333" d="M84 4C-5 8 30-112 23-190h32v120c0 31 7 50 39 49 72-2 45-101 50-169h31l1 190h-30c-1-10 1-25-2-33-11 22-28 36-60 37" id="aU"/><path fill="#333" d="M100-194c63 0 86 42 84 106H49c0 40 14 67 53 68 26 1 43-12 49-29l28 8c-11 28-37 45-77 45C44 4 14-33 15-96c1-61 26-98 85-98zm52 81c6-60-76-77-97-28-3 7-6 17-6 28h103" id="aV"/><path fill="#333" d="M85-194c31 0 48 13 60 33l-1-100h32l1 261h-30c-2-10 0-23-3-31C134-8 116 4 85 4 32 4 16-35 15-94c0-66 23-100 70-100zm9 24c-40 0-46 34-46 75 0 40 6 74 45 74 42 0 51-32 51-76 0-42-9-74-50-73" id="aW"/><g id="h"><use transform="matrix(0.05720164609053498,0,0,0.05720164609053498,0,0)" xlink:href="#aO"/><use transform="matrix(0.05720164609053498,0,0,0.05720164609053498,11.440329218106996,0)" xlink:href="#aP"/><use transform="matrix(0.05720164609053498,0,0,0.05720164609053498,22.88065843621399,0)" xlink:href="#aQ"/><use transform="matrix(0.05720164609053498,0,0,0.05720164609053498,34.32098765432099,0)" xlink:href="#aR"/><use transform="matrix(0.05720164609053498,0,0,0.05720164609053498,40.041152263374485,0)" xlink:href="#aS"/><use transform="matrix(0.05720164609053498,0,0,0.05720164609053498,44.560082304526745,0)" xlink:href="#aT"/><use transform="matrix(0.05720164609053498,0,0,0.05720164609053498,56.00041152263374,0)" xlink:href="#aU"/><use transform="matrix(0.05720164609053498,0,0,0.05720164609053498,67.44074074074074,0)" xlink:href="#aV"/><use transform="matrix(0.05720164609053498,0,0,0.05720164609053498,78.88106995884773,0)" xlink:href="#aW"/><use transform="matrix(0.05720164609053498,0,0,0.05720164609053498,90.32139917695473,0)" xlink:href="#aP"/><use transform="matrix(0.05720164609053498,0,0,0.05720164609053498,101.76172839506172,0)" xlink:href="#aW"/></g><path fill="#333" d="M33-154v-36h34v36H33zM33 0v-36h34V0H33" id="aX"/><use transform="matrix(0.05720164609053498,0,0,0.05720164609053498,0,0)" xlink:href="#aX" id="i"/><path fill="#333" d="M30-248c118-7 216 8 213 122C240-48 200 0 122 0H30v-248zM63-27c89 8 146-16 146-99s-60-101-146-95v194" id="aY"/><path fill="#333" d="M127-220V0H93v-220H8v-28h204v28h-85" id="aZ"/><path fill="#333" d="M210-169c-67 3-38 105-44 169h-31v-121c0-29-5-50-35-48C34-165 62-65 56 0H25l-1-190h30c1 10-1 24 2 32 10-44 99-50 107 0 11-21 27-35 58-36 85-2 47 119 55 194h-31v-121c0-29-5-49-35-48" id="ba"/><g id="j"><use transform="matrix(0.05720164609053498,0,0,0.05720164609053498,0,0)" xlink:href="#aY"/><use transform="matrix(0.05720164609053498,0,0,0.05720164609053498,14.815226337448559,0)" xlink:href="#aP"/><use transform="matrix(0.05720164609053498,0,0,0.05720164609053498,26.255555555555553,0)" xlink:href="#aR"/><use transform="matrix(0.05720164609053498,0,0,0.05720164609053498,31.97572016460905,0)" xlink:href="#aV"/><use transform="matrix(0.05720164609053498,0,0,0.05720164609053498,43.41604938271605,0)" xlink:href="#aZ"/><use transform="matrix(0.05720164609053498,0,0,0.05720164609053498,55.199588477366255,0)" xlink:href="#aS"/><use transform="matrix(0.05720164609053498,0,0,0.05720164609053498,59.718518518518515,0)" xlink:href="#ba"/><use transform="matrix(0.05720164609053498,0,0,0.05720164609053498,76.82181069958848,0)" xlink:href="#aV"/></g><path fill="#333" d="M24 0v-261h32V0H24" id="bb"/><path fill="#333" d="M100-194c62-1 85 37 85 99 1 63-27 99-86 99S16-35 15-95c0-66 28-99 85-99zM99-20c44 1 53-31 53-75 0-43-8-75-51-75s-53 32-53 75 10 74 51 75" id="bc"/><path fill="#333" d="M185-189c-5-48-123-54-124 2 14 75 158 14 163 119 3 78-121 87-175 55-17-10-28-26-33-46l33-7c5 56 141 63 141-1 0-78-155-14-162-118-5-82 145-84 179-34 5 7 8 16 11 25" id="bd"/><path fill="#333" d="M114-163C36-179 61-72 57 0H25l-1-190h30c1 12-1 29 2 39 6-27 23-49 58-41v29" id="be"/><g id="k"><use transform="matrix(0.05720164609053498,0,0,0.05720164609053498,0,0)" xlink:href="#aO"/><use transform="matrix(0.05720164609053498,0,0,0.05720164609053498,11.440329218106996,0)" xlink:href="#aU"/><use transform="matrix(0.05720164609053498,0,0,0.05720164609053498,22.88065843621399,0)" xlink:href="#bb"/><use transform="matrix(0.05720164609053498,0,0,0.05720164609053498,27.399588477366255,0)" xlink:href="#aR"/><use transform="matrix(0.05720164609053498,0,0,0.05720164609053498,33.11975308641975,0)" xlink:href="#aS"/><use transform="matrix(0.05720164609053498,0,0,0.05720164609053498,37.63868312757201,0)" xlink:href="#ba"/><use transform="matrix(0.05720164609053498,0,0,0.05720164609053498,54.74197530864197,0)" xlink:href="#bc"/><use transform="matrix(0.05720164609053498,0,0,0.05720164609053498,66.18230452674896,0)" xlink:href="#bd"/><use transform="matrix(0.05720164609053498,0,0,0.05720164609053498,79.91069958847736,0)" xlink:href="#aP"/><use transform="matrix(0.05720164609053498,0,0,0.05720164609053498,91.35102880658435,0)" xlink:href="#bb"/><use transform="matrix(0.05720164609053498,0,0,0.05720164609053498,95.86995884773661,0)" xlink:href="#aP"/><use transform="matrix(0.05720164609053498,0,0,0.05720164609053498,107.31028806584361,0)" xlink:href="#be"/><use transform="matrix(0.05720164609053498,0,0,0.05720164609053498,114.11728395061726,0)" xlink:href="#aS"/><use transform="matrix(0.05720164609053498,0,0,0.05720164609053498,118.63621399176952,0)" xlink:href="#bc"/></g><g id="l"><use transform="matrix(0.05720164609053498,0,0,0.05720164609053498,0,0)" xlink:href="#bd"/><use transform="matrix(0.05720164609053498,0,0,0.05720164609053498,13.728395061728394,0)" xlink:href="#aP"/><use transform="matrix(0.05720164609053498,0,0,0.05720164609053498,25.168724279835388,0)" xlink:href="#bb"/><use transform="matrix(0.05720164609053498,0,0,0.05720164609053498,29.687654320987654,0)" xlink:href="#aP"/><use transform="matrix(0.05720164609053498,0,0,0.05720164609053498,41.12798353909464,0)" xlink:href="#be"/><use transform="matrix(0.05720164609053498,0,0,0.05720164609053498,47.934979423868306,0)" xlink:href="#aS"/><use transform="matrix(0.05720164609053498,0,0,0.05720164609053498,52.45390946502057,0)" xlink:href="#bc"/></g><path fill="#333" d="M123-107v75H97v-75H23v-26h74v-75h26v75h75v26h-75" id="bf"/><use transform="matrix(0.05720164609053498,0,0,0.05720164609053498,0,0)" xlink:href="#bf" id="m"/><path fill="#333" d="M11 0l48-248h184l-5 28H87l-15 79h140l-5 27H67L50-27h158l-5 27H11" id="bg"/><path fill="#333" d="M133-28C103 26-5 8 13-77c13-62 24-115 90-117 29-1 46 15 56 35 2-12 6-24 8-34h31L144 75h-31zM45-64c-2 27 10 43 35 43 54-1 69-50 69-103 0-29-15-46-42-46-53-1-58 58-62 106" id="bh"/><path fill="#333" d="M67 3c-93-2-31-127-26-193h32L48-50c-3 39 53 32 70 12 30-34 30-101 43-152h32L157 0h-30c1-10 6-24 4-33-14 20-29 37-64 36" id="bi"/><path fill="#333" d="M55-144c13 50 104 24 104 88C159 21 15 23 1-39l26-10c6 40 102 42 102-4-13-50-104-23-104-87 0-71 143-71 148-8l-29 4c-5-35-85-37-89 0" id="bj"/><path fill="#333" d="M17-49c1-102 45-165 103-212h30C92-210 49-145 49-46 49 4 63 43 85 75H54C30 43 18 2 17-49" id="bk"/><path fill="#333" d="M20-101c0-91 52-143 145-150 126-9 127 168 53 223-23 17-55 32-93 32C57 4 20-33 20-101zm216-33c5-57-18-91-73-90-77 1-110 51-110 125 0 49 23 75 73 75 72-1 104-45 110-110" id="bl"/><path fill="#333" d="M68-162c25-46 127-43 121 31C183-60 169 1 98 4 69 5 53-11 43-31L36 0H5l52-261h31zm88 36c2-27-9-43-34-43-55 0-70 51-70 103 0 29 15 45 43 46 52 0 58-58 61-106" id="bm"/><path fill="#333" d="M44-68c0 29 11 47 38 47 30 0 42-19 51-41l28 9C148-21 126 4 82 4 31 4 10-29 12-85c3-77 74-140 146-93 12 8 15 23 18 40l-31 5c-1-22-13-36-36-36-52 0-65 49-65 101" id="bn"/><path fill="#333" d="M98-137C97-35 54 29-4 75h-31C23 23 67-41 67-140c0-50-15-89-37-121h31c24 32 36 73 37 124" id="bo"/><g id="n"><use transform="matrix(0.05720164609053498,0,0,0.05720164609053498,0,0)" xlink:href="#bg"/><use transform="matrix(0.05720164609053498,0,0,0.05720164609053498,13.728395061728394,0)" xlink:href="#bh"/><use transform="matrix(0.05720164609053498,0,0,0.05720164609053498,25.168724279835388,0)" xlink:href="#bi"/><use transform="matrix(0.05720164609053498,0,0,0.05720164609053498,36.609053497942384,0)" xlink:href="#aG"/><use transform="matrix(0.05720164609053498,0,0,0.05720164609053498,48.04938271604938,0)" xlink:href="#aD"/><use transform="matrix(0.05720164609053498,0,0,0.05720164609053498,52.56831275720164,0)" xlink:href="#bj"/><use transform="matrix(0.05720164609053498,0,0,0.05720164609053498,62.86460905349794,0)" xlink:href="#bk"/><use transform="matrix(0.05720164609053498,0,0,0.05720164609053498,69.6716049382716,0)" xlink:href="#bl"/><use transform="matrix(0.05720164609053498,0,0,0.05720164609053498,85.68806584362139,0)" xlink:href="#bm"/><use transform="matrix(0.05720164609053498,0,0,0.05720164609053498,97.12839506172838,0)" xlink:href="#aH"/><use transform="matrix(0.05720164609053498,0,0,0.05720164609053498,101.64732510288064,0)" xlink:href="#aE"/><use transform="matrix(0.05720164609053498,0,0,0.05720164609053498,113.08765432098764,0)" xlink:href="#bn"/><use transform="matrix(0.05720164609053498,0,0,0.05720164609053498,123.38395061728392,0)" xlink:href="#aM"/><use transform="matrix(0.05720164609053498,0,0,0.05720164609053498,129.10411522633743,0)" xlink:href="#bo"/></g><g id="o"><use transform="matrix(0.05720164609053498,0,0,0.05720164609053498,0,0)" xlink:href="#bm"/><use transform="matrix(0.05720164609053498,0,0,0.05720164609053498,11.440329218106996,0)" xlink:href="#aI"/><use transform="matrix(0.05720164609053498,0,0,0.05720164609053498,22.88065843621399,0)" xlink:href="#aI"/><use transform="matrix(0.05720164609053498,0,0,0.05720164609053498,34.32098765432099,0)" xlink:href="#aD"/></g><path fill="#333" d="M187 0l-14-72H61L19 0h-37l149-248h38L221 0h-34zm-19-99l-22-123L76-99h92" id="bp"/><path fill="#333" d="M248-111c6-24 9-61-24-58-72 9-57 108-77 169h-31l26-142c3-37-50-30-64-10C52-115 50-51 37 0H6l36-190h30c-1 10-6 24-4 32 13-43 101-52 105 5 13-22 29-41 61-41 90 0 28 129 23 194h-31" id="bq"/><g id="p"><use transform="matrix(0.05720164609053498,0,0,0.05720164609053498,0,0)" xlink:href="#bp"/><use transform="matrix(0.05720164609053498,0,0,0.05720164609053498,13.728395061728394,0)" xlink:href="#aD"/><use transform="matrix(0.05720164609053498,0,0,0.05720164609053498,18.24732510288066,0)" xlink:href="#bi"/><use transform="matrix(0.05720164609053498,0,0,0.05720164609053498,29.687654320987654,0)" xlink:href="#bq"/><use transform="matrix(0.05720164609053498,0,0,0.05720164609053498,46.79094650205761,0)" xlink:href="#aL"/><use transform="matrix(0.05720164609053498,0,0,0.05720164609053498,58.231275720164604,0)" xlink:href="#aI"/></g><path fill="#333" d="M133-28C103 26-5 8 13-77c13-62 24-115 90-117 29-1 46 15 56 35l19-102h32L160 0h-30zM45-64c-2 27 10 43 35 43 54-1 69-50 69-103 0-29-15-46-42-46-53-1-58 58-62 106" id="br"/><g id="q"><use transform="matrix(0.05720164609053498,0,0,0.05720164609053498,0,0)" xlink:href="#aC"/><use transform="matrix(0.05720164609053498,0,0,0.05720164609053498,11.440329218106996,0)" xlink:href="#bn"/><use transform="matrix(0.05720164609053498,0,0,0.05720164609053498,21.736625514403293,0)" xlink:href="#aI"/><use transform="matrix(0.05720164609053498,0,0,0.05720164609053498,33.17695473251029,0)" xlink:href="#br"/><use transform="matrix(0.05720164609053498,0,0,0.05720164609053498,44.617283950617285,0)" xlink:href="#aK"/><use transform="matrix(0.05720164609053498,0,0,0.05720164609053498,49.13621399176955,0)" xlink:href="#aF"/><use transform="matrix(0.05720164609053498,0,0,0.05720164609053498,60.57654320987654,0)" xlink:href="#aI"/></g><g id="r"><use transform="matrix(0.05720164609053498,0,0,0.05720164609053498,0,0)" xlink:href="#aK"/><use transform="matrix(0.05720164609053498,0,0,0.05720164609053498,4.518930041152263,0)" xlink:href="#aL"/><use transform="matrix(0.05720164609053498,0,0,0.05720164609053498,15.959259259259259,0)" xlink:href="#aM"/></g><path fill="#333" d="M87-220l-18 92h140l-5 28H64L45 0H11l48-248h178l-5 28H87" id="bs"/><g id="s"><use transform="matrix(0.05720164609053498,0,0,0.05720164609053498,0,0)" xlink:href="#bs"/><use transform="matrix(0.05720164609053498,0,0,0.05720164609053498,12.52716049382716,0)" xlink:href="#aG"/><use transform="matrix(0.05720164609053498,0,0,0.05720164609053498,23.967489711934157,0)" xlink:href="#bn"/><use transform="matrix(0.05720164609053498,0,0,0.05720164609053498,34.263786008230454,0)" xlink:href="#bi"/><use transform="matrix(0.05720164609053498,0,0,0.05720164609053498,45.70411522633745,0)" xlink:href="#aD"/><use transform="matrix(0.05720164609053498,0,0,0.05720164609053498,50.22304526748971,0)" xlink:href="#aM"/><use transform="matrix(0.05720164609053498,0,0,0.05720164609053498,55.94320987654321,0)" xlink:href="#aG"/><use transform="matrix(0.05720164609053498,0,0,0.05720164609053498,67.3835390946502,0)" xlink:href="#br"/></g><path fill="#333" d="M67-162c32-53 139-36 121 50C175-51 163 2 97 4 68 4 52-11 42-31 38 6 28 39 22 75H-9l50-265h29c-1 10 0 20-3 28zm89 36c0-26-10-43-35-43-54 0-67 50-69 103-1 29 14 45 42 46 53 0 62-58 62-106" id="bt"/><g id="t"><use transform="matrix(0.05720164609053498,0,0,0.05720164609053498,0,0)" xlink:href="#aC"/><use transform="matrix(0.05720164609053498,0,0,0.05720164609053498,11.440329218106996,0)" xlink:href="#aE"/><use transform="matrix(0.05720164609053498,0,0,0.05720164609053498,22.88065843621399,0)" xlink:href="#bq"/><use transform="matrix(0.05720164609053498,0,0,0.05720164609053498,39.98395061728395,0)" xlink:href="#bt"/><use transform="matrix(0.05720164609053498,0,0,0.05720164609053498,51.42427983539095,0)" xlink:href="#aD"/><use transform="matrix(0.05720164609053498,0,0,0.05720164609053498,55.94320987654321,0)" xlink:href="#aE"/><use transform="matrix(0.05720164609053498,0,0,0.05720164609053498,67.3835390946502,0)" xlink:href="#aG"/><use transform="matrix(0.05720164609053498,0,0,0.05720164609053498,78.8238683127572,0)" xlink:href="#br"/><use transform="matrix(0.05720164609053498,0,0,0.05720164609053498,90.2641975308642,0)" xlink:href="#aI"/><use transform="matrix(0.05720164609053498,0,0,0.05720164609053498,101.70452674897119,0)" xlink:href="#bj"/></g><path fill="#333" d="M11 0l48-248h34L50-27h125l-5 27H11" id="bu"/><path fill="#333" d="M23-100v-36l175-74v27L47-118l151 64v27" id="bv"/><path fill="#333" d="M23-27v-27l151-64-151-65v-27l175 74v36" id="bw"/><g id="u"><use transform="matrix(0.05720164609053498,0,0,0.05720164609053498,0,0)" xlink:href="#bu"/><use transform="matrix(0.05720164609053498,0,0,0.05720164609053498,11.440329218106996,0)" xlink:href="#aK"/><use transform="matrix(0.05720164609053498,0,0,0.05720164609053498,15.959259259259259,0)" xlink:href="#bj"/><use transform="matrix(0.05720164609053498,0,0,0.05720164609053498,26.255555555555553,0)" xlink:href="#aM"/><use transform="matrix(0.05720164609053498,0,0,0.05720164609053498,31.97572016460905,0)" xlink:href="#bv"/><use transform="matrix(0.05720164609053498,0,0,0.05720164609053498,43.9880658436214,0)" xlink:href="#bg"/><use transform="matrix(0.05720164609053498,0,0,0.05720164609053498,57.71646090534979,0)" xlink:href="#bq"/><use transform="matrix(0.05720164609053498,0,0,0.05720164609053498,74.81975308641975,0)" xlink:href="#bt"/><use transform="matrix(0.05720164609053498,0,0,0.05720164609053498,86.26008230452675,0)" xlink:href="#aD"/><use transform="matrix(0.05720164609053498,0,0,0.05720164609053498,90.779012345679,0)" xlink:href="#aE"/><use transform="matrix(0.05720164609053498,0,0,0.05720164609053498,102.219341563786,0)" xlink:href="#aG"/><use transform="matrix(0.05720164609053498,0,0,0.05720164609053498,113.659670781893,0)" xlink:href="#br"/><use transform="matrix(0.05720164609053498,0,0,0.05720164609053498,125.1,0)" xlink:href="#aI"/><use transform="matrix(0.05720164609053498,0,0,0.05720164609053498,136.540329218107,0)" xlink:href="#bw"/></g><g id="v"><use transform="matrix(0.05720164609053498,0,0,0.05720164609053498,0,0)" xlink:href="#aC"/><use transform="matrix(0.05720164609053498,0,0,0.05720164609053498,11.440329218106996,0)" xlink:href="#aG"/><use transform="matrix(0.05720164609053498,0,0,0.05720164609053498,22.88065843621399,0)" xlink:href="#aD"/><use transform="matrix(0.05720164609053498,0,0,0.05720164609053498,27.399588477366255,0)" xlink:href="#bi"/><use transform="matrix(0.05720164609053498,0,0,0.05720164609053498,38.83991769547325,0)" xlink:href="#bq"/><use transform="matrix(0.05720164609053498,0,0,0.05720164609053498,55.94320987654321,0)" xlink:href="#aL"/><use transform="matrix(0.05720164609053498,0,0,0.05720164609053498,67.3835390946502,0)" xlink:href="#aI"/><use transform="matrix(0.05720164609053498,0,0,0.05720164609053498,78.8238683127572,0)" xlink:href="#bj"/></g><g id="w"><use transform="matrix(0.05720164609053498,0,0,0.05720164609053498,0,0)" xlink:href="#bu"/><use transform="matrix(0.05720164609053498,0,0,0.05720164609053498,11.440329218106996,0)" xlink:href="#aK"/><use transform="matrix(0.05720164609053498,0,0,0.05720164609053498,15.959259259259259,0)" xlink:href="#bj"/><use transform="matrix(0.05720164609053498,0,0,0.05720164609053498,26.255555555555553,0)" xlink:href="#aM"/><use transform="matrix(0.05720164609053498,0,0,0.05720164609053498,31.97572016460905,0)" xlink:href="#bv"/><use transform="matrix(0.05720164609053498,0,0,0.05720164609053498,43.9880658436214,0)" xlink:href="#bp"/><use transform="matrix(0.05720164609053498,0,0,0.05720164609053498,57.71646090534979,0)" xlink:href="#aD"/><use transform="matrix(0.05720164609053498,0,0,0.05720164609053498,62.23539094650206,0)" xlink:href="#bi"/><use transform="matrix(0.05720164609053498,0,0,0.05720164609053498,73.67572016460905,0)" xlink:href="#bq"/><use transform="matrix(0.05720164609053498,0,0,0.05720164609053498,90.779012345679,0)" xlink:href="#aL"/><use transform="matrix(0.05720164609053498,0,0,0.05720164609053498,102.219341563786,0)" xlink:href="#aI"/><use transform="matrix(0.05720164609053498,0,0,0.05720164609053498,113.659670781893,0)" xlink:href="#bw"/></g><path fill="#333" d="M66-151c12-25 30-51 66-40l-6 26C45-176 58-65 38 0H6l36-190h30" id="bx"/><g id="x"><use transform="matrix(0.05720164609053498,0,0,0.05720164609053498,0,0)" xlink:href="#aC"/><use transform="matrix(0.05720164609053498,0,0,0.05720164609053498,11.440329218106996,0)" xlink:href="#aL"/><use transform="matrix(0.05720164609053498,0,0,0.05720164609053498,22.88065843621399,0)" xlink:href="#aI"/><use transform="matrix(0.05720164609053498,0,0,0.05720164609053498,34.32098765432099,0)" xlink:href="#bq"/><use transform="matrix(0.05720164609053498,0,0,0.05720164609053498,51.42427983539095,0)" xlink:href="#bm"/><use transform="matrix(0.05720164609053498,0,0,0.05720164609053498,62.86460905349794,0)" xlink:href="#bx"/><use transform="matrix(0.05720164609053498,0,0,0.05720164609053498,69.6716049382716,0)" xlink:href="#aE"/></g><g id="y"><use transform="matrix(0.05720164609053498,0,0,0.05720164609053498,0,0)" xlink:href="#bj"/><use transform="matrix(0.05720164609053498,0,0,0.05720164609053498,10.296296296296296,0)" xlink:href="#aM"/><use transform="matrix(0.05720164609053498,0,0,0.05720164609053498,16.016460905349795,0)" xlink:href="#bx"/><use transform="matrix(0.05720164609053498,0,0,0.05720164609053498,22.82345679012346,0)" xlink:href="#aK"/><use transform="matrix(0.05720164609053498,0,0,0.05720164609053498,27.34238683127572,0)" xlink:href="#aL"/><use transform="matrix(0.05720164609053498,0,0,0.05720164609053498,38.782716049382714,0)" xlink:href="#aF"/></g><g id="A"><use transform="matrix(0.05720164609053498,0,0,0.05720164609053498,0,0)" xlink:href="#bp"/><use transform="matrix(0.05720164609053498,0,0,0.05720164609053498,13.728395061728394,0)" xlink:href="#aF"/><use transform="matrix(0.05720164609053498,0,0,0.05720164609053498,25.168724279835388,0)" xlink:href="#bx"/><use transform="matrix(0.05720164609053498,0,0,0.05720164609053498,31.97572016460905,0)" xlink:href="#aE"/><use transform="matrix(0.05720164609053498,0,0,0.05720164609053498,43.41604938271605,0)" xlink:href="#aF"/><use transform="matrix(0.05720164609053498,0,0,0.05720164609053498,54.85637860082304,0)" xlink:href="#aG"/><use transform="matrix(0.05720164609053498,0,0,0.05720164609053498,66.29670781893003,0)" xlink:href="#bx"/><use transform="matrix(0.05720164609053498,0,0,0.05720164609053498,73.10370370370369,0)" xlink:href="#bp"/><use transform="matrix(0.05720164609053498,0,0,0.05720164609053498,86.83209876543208,0)" xlink:href="#aD"/><use transform="matrix(0.05720164609053498,0,0,0.05720164609053498,91.35102880658434,0)" xlink:href="#bi"/><use transform="matrix(0.05720164609053498,0,0,0.05720164609053498,102.79135802469133,0)" xlink:href="#bq"/><use transform="matrix(0.05720164609053498,0,0,0.05720164609053498,119.89465020576128,0)" xlink:href="#aL"/><use transform="matrix(0.05720164609053498,0,0,0.05720164609053498,131.33497942386828,0)" xlink:href="#aI"/><use transform="matrix(0.05720164609053498,0,0,0.05720164609053498,142.77530864197527,0)" xlink:href="#bk"/><use transform="matrix(0.05720164609053498,0,0,0.05720164609053498,149.58230452674894,0)" xlink:href="#bp"/><use transform="matrix(0.05720164609053498,0,0,0.05720164609053498,163.31069958847735,0)" xlink:href="#aD"/><use transform="matrix(0.05720164609053498,0,0,0.05720164609053498,167.8296296296296,0)" xlink:href="#bi"/><use transform="matrix(0.05720164609053498,0,0,0.05720164609053498,179.2699588477366,0)" xlink:href="#bq"/><use transform="matrix(0.05720164609053498,0,0,0.05720164609053498,196.37325102880655,0)" xlink:href="#aL"/><use transform="matrix(0.05720164609053498,0,0,0.05720164609053498,207.81358024691355,0)" xlink:href="#aI"/><use transform="matrix(0.05720164609053498,0,0,0.05720164609053498,219.25390946502054,0)" xlink:href="#bo"/></g><path fill="#333" d="M89 0H52L20-190h33L74-25l89-165h34" id="by"/><g id="B"><use transform="matrix(0.05720164609053498,0,0,0.05720164609053498,0,0)" xlink:href="#by"/><use transform="matrix(0.05720164609053498,0,0,0.05720164609053498,10.296296296296296,0)" xlink:href="#aI"/><use transform="matrix(0.05720164609053498,0,0,0.05720164609053498,21.736625514403293,0)" xlink:href="#aK"/><use transform="matrix(0.05720164609053498,0,0,0.05720164609053498,26.255555555555556,0)" xlink:href="#br"/></g><g id="C"><use transform="matrix(0.05720164609053498,0,0,0.05720164609053498,0,0)" xlink:href="#bp"/><use transform="matrix(0.05720164609053498,0,0,0.05720164609053498,13.728395061728394,0)" xlink:href="#aF"/><use transform="matrix(0.05720164609053498,0,0,0.05720164609053498,25.168724279835388,0)" xlink:href="#bx"/><use transform="matrix(0.05720164609053498,0,0,0.05720164609053498,31.97572016460905,0)" xlink:href="#aE"/><use transform="matrix(0.05720164609053498,0,0,0.05720164609053498,43.41604938271605,0)" xlink:href="#aF"/><use transform="matrix(0.05720164609053498,0,0,0.05720164609053498,54.85637860082304,0)" xlink:href="#aG"/><use transform="matrix(0.05720164609053498,0,0,0.05720164609053498,66.29670781893003,0)" xlink:href="#bx"/><use transform="matrix(0.05720164609053498,0,0,0.05720164609053498,73.10370370370369,0)" xlink:href="#bg"/><use transform="matrix(0.05720164609053498,0,0,0.05720164609053498,86.83209876543208,0)" xlink:href="#bq"/><use transform="matrix(0.05720164609053498,0,0,0.05720164609053498,103.93539094650204,0)" xlink:href="#bt"/><use transform="matrix(0.05720164609053498,0,0,0.05720164609053498,115.37572016460904,0)" xlink:href="#aD"/><use transform="matrix(0.05720164609053498,0,0,0.05720164609053498,119.89465020576128,0)" xlink:href="#aE"/><use transform="matrix(0.05720164609053498,0,0,0.05720164609053498,131.33497942386828,0)" xlink:href="#aG"/><use transform="matrix(0.05720164609053498,0,0,0.05720164609053498,142.77530864197527,0)" xlink:href="#br"/><use transform="matrix(0.05720164609053498,0,0,0.05720164609053498,154.21563786008227,0)" xlink:href="#aI"/><use transform="matrix(0.05720164609053498,0,0,0.05720164609053498,165.65596707818926,0)" xlink:href="#bk"/><use transform="matrix(0.05720164609053498,0,0,0.05720164609053498,172.46296296296293,0)" xlink:href="#bg"/><use transform="matrix(0.05720164609053498,0,0,0.05720164609053498,186.19135802469134,0)" xlink:href="#bq"/><use transform="matrix(0.05720164609053498,0,0,0.05720164609053498,203.2946502057613,0)" xlink:href="#bt"/><use transform="matrix(0.05720164609053498,0,0,0.05720164609053498,214.73497942386828,0)" xlink:href="#aD"/><use transform="matrix(0.05720164609053498,0,0,0.05720164609053498,219.25390946502054,0)" xlink:href="#aE"/><use transform="matrix(0.05720164609053498,0,0,0.05720164609053498,230.69423868312754,0)" xlink:href="#aG"/><use transform="matrix(0.05720164609053498,0,0,0.05720164609053498,242.13456790123456,0)" xlink:href="#br"/><use transform="matrix(0.05720164609053498,0,0,0.05720164609053498,253.57489711934156,0)" xlink:href="#aI"/><use transform="matrix(0.05720164609053498,0,0,0.05720164609053498,265.01522633744855,0)" xlink:href="#bo"/></g><g id="D"><use transform="matrix(0.05720164609053498,0,0,0.05720164609053498,0,0)" xlink:href="#by"/><use transform="matrix(0.05720164609053498,0,0,0.05720164609053498,10.296296296296296,0)" xlink:href="#aI"/><use transform="matrix(0.05720164609053498,0,0,0.05720164609053498,21.736625514403293,0)" xlink:href="#aK"/><use transform="matrix(0.05720164609053498,0,0,0.05720164609053498,26.255555555555556,0)" xlink:href="#br"/></g><path fill="#333" d="M115-194c55 1 70 41 70 98S169 2 115 4C84 4 66-9 55-30l1 105H24l-1-265h31l2 30c10-21 28-34 59-34zm-8 174c40 0 45-34 45-75s-6-73-45-74c-42 0-51 32-51 76 0 43 10 73 51 73" id="bz"/><g id="E"><use transform="matrix(0.05005144032921811,0,0,0.05005144032921811,0,0)" xlink:href="#bz"/><use transform="matrix(0.05005144032921811,0,0,0.05005144032921811,10.010288065843621,0)" xlink:href="#aP"/><use transform="matrix(0.05005144032921811,0,0,0.05005144032921811,20.020576131687243,0)" xlink:href="#be"/><use transform="matrix(0.05005144032921811,0,0,0.05005144032921811,25.976697530864197,0)" xlink:href="#aR"/><use transform="matrix(0.05005144032921811,0,0,0.05005144032921811,30.98184156378601,0)" xlink:href="#aV"/></g><g id="F"><use transform="matrix(0.05005144032921811,0,0,0.05005144032921811,0,0)" xlink:href="#aW"/><use transform="matrix(0.05005144032921811,0,0,0.05005144032921811,10.010288065843621,0)" xlink:href="#aV"/></g><path fill="#333" d="M101-251c68 0 85 55 85 127S166 4 100 4C33 4 14-52 14-124c0-73 17-127 87-127zm-1 229c47 0 54-49 54-102s-4-102-53-102c-51 0-55 48-55 102 0 53 5 102 54 102" id="bA"/><path fill="#333" d="M33 0v-38h34V0H33" id="bB"/><path fill="#333" d="M80-196l47-18 7 23-49 13 32 44-20 13-27-46-27 45-21-12 33-44-49-13 8-23 47 19-2-53h23" id="bC"/><g id="G"><use transform="matrix(0.05005144032921811,0,0,0.05005144032921811,0,0)" xlink:href="#bA"/><use transform="matrix(0.05005144032921811,0,0,0.05005144032921811,10.010288065843621,0)" xlink:href="#bB"/><use transform="matrix(0.05005144032921811,0,0,0.05005144032921811,15.015432098765432,0)" xlink:href="#bB"/><use transform="matrix(0.05005144032921811,0,0,0.05005144032921811,20.020576131687243,0)" xlink:href="#bC"/></g><path fill="#333" d="M27 0v-27h64v-190l-56 39v-29l58-41h29v221h61V0H27" id="bD"/><g id="H"><use transform="matrix(0.05005144032921811,0,0,0.05005144032921811,0,0)" xlink:href="#bD"/><use transform="matrix(0.05005144032921811,0,0,0.05005144032921811,10.010288065843621,0)" xlink:href="#bB"/><use transform="matrix(0.05005144032921811,0,0,0.05005144032921811,15.015432098765432,0)" xlink:href="#bB"/><use transform="matrix(0.05005144032921811,0,0,0.05005144032921811,20.020576131687243,0)" xlink:href="#bC"/></g><path fill="#b2b2b2" d="M24-248c120-7 223 5 221 122C244-46 201 0 124 0H24v-248zM76-40c74 7 117-18 117-86 0-67-45-88-117-82v168" id="bE"/><path fill="#b2b2b2" d="M25-224v-37h50v37H25zM25 0v-190h50V0H25" id="bF"/><path fill="#b2b2b2" d="M133-34C117-15 103 5 69 4 32 3 11-16 11-54c-1-60 55-63 116-61 1-26-3-47-28-47-18 1-26 9-28 27l-52-2c7-38 36-58 82-57s74 22 75 68l1 82c-1 14 12 18 25 15v27c-30 8-71 5-69-32zm-48 3c29 0 43-24 42-57-32 0-66-3-65 30 0 17 8 27 23 27" id="bG"/><path fill="#b2b2b2" d="M195-6C206 82 75 100 31 46c-4-6-6-13-8-21l49-6c3 16 16 24 34 25 40 0 42-37 40-79-11 22-30 35-61 35-53 0-70-43-70-97 0-56 18-96 73-97 30 0 46 14 59 34l2-30h47zm-90-29c32 0 41-27 41-63 0-35-9-62-40-62-32 0-39 29-40 63 0 36 9 62 39 62" id="bH"/><path fill="#b2b2b2" d="M135-150c-39-12-60 13-60 57V0H25l-1-190h47c2 13-1 29 3 40 6-28 27-53 61-41v41" id="bI"/><path fill="#b2b2b2" d="M220-157c-53 9-28 100-34 157h-49v-107c1-27-5-49-29-50C55-147 81-57 75 0H25l-1-190h47c2 12-1 28 3 38 10-53 101-56 108 0 13-22 24-43 59-42 82 1 51 116 57 194h-49v-107c-1-25-5-48-29-50" id="bJ"/><g id="I"><use transform="matrix(0.08580246913580246,0,0,0.08580246913580246,0,0)" xlink:href="#bE"/><use transform="matrix(0.08580246913580246,0,0,0.08580246913580246,22.222839506172836,0)" xlink:href="#bF"/><use transform="matrix(0.08580246913580246,0,0,0.08580246913580246,30.80308641975308,0)" xlink:href="#bG"/><use transform="matrix(0.08580246913580246,0,0,0.08580246913580246,47.963580246913565,0)" xlink:href="#bH"/><use transform="matrix(0.08580246913580246,0,0,0.08580246913580246,66.7543209876543,0)" xlink:href="#bI"/><use transform="matrix(0.08580246913580246,0,0,0.08580246913580246,78.76666666666664,0)" xlink:href="#bG"/><use transform="matrix(0.08580246913580246,0,0,0.08580246913580246,95.92716049382713,0)" xlink:href="#bJ"/><use transform="matrix(0.08580246913580246,0,0,0.08580246913580246,123.38395061728392,0)" xlink:href="#bG"/></g><path fill="#b2b2b2" d="M88-194c31-1 46 15 58 34l-1-101h50l1 261h-48c-2-10 0-23-3-31C134-8 116 4 84 4 32 4 16-41 15-95c0-56 19-97 73-99zm17 164c33 0 40-30 41-66 1-37-9-64-41-64s-38 30-39 65c0 43 13 65 39 65" id="bK"/><path fill="#b2b2b2" d="M185-48c-13 30-37 53-82 52C43 2 14-33 14-96s30-98 90-98c62 0 83 45 84 108H66c0 31 8 55 39 56 18 0 30-7 34-22zm-45-69c5-46-57-63-70-21-2 6-4 13-4 21h74" id="bL"/><g id="J"><use transform="matrix(0.08580246913580246,0,0,0.08580246913580246,0,0)" xlink:href="#bK"/><use transform="matrix(0.08580246913580246,0,0,0.08580246913580246,18.790740740740738,0)" xlink:href="#bL"/></g><path fill="#b2b2b2" d="M190-63c-7 42-38 67-86 67-59 0-84-38-90-98-12-110 154-137 174-36l-49 2c-2-19-15-32-35-32-30 0-35 28-38 64-6 74 65 87 74 30" id="bM"/><path fill="#b2b2b2" d="M25 0v-261h50V0H25" id="bN"/><path fill="#b2b2b2" d="M137-138c1-29-70-34-71-4 15 46 118 7 119 86 1 83-164 76-172 9l43-7c4 19 20 25 44 25 33 8 57-30 24-41C81-84 22-81 20-136c-2-80 154-74 161-7" id="bO"/><g id="K"><use transform="matrix(0.08580246913580246,0,0,0.08580246913580246,0,0)" xlink:href="#bM"/><use transform="matrix(0.08580246913580246,0,0,0.08580246913580246,17.16049382716049,0)" xlink:href="#bN"/><use transform="matrix(0.08580246913580246,0,0,0.08580246913580246,25.740740740740733,0)" xlink:href="#bG"/><use transform="matrix(0.08580246913580246,0,0,0.08580246913580246,42.90123456790123,0)" xlink:href="#bO"/><use transform="matrix(0.08580246913580246,0,0,0.08580246913580246,60.06172839506172,0)" xlink:href="#bL"/><use transform="matrix(0.08580246913580246,0,0,0.08580246913580246,77.22222222222221,0)" xlink:href="#bO"/></g><path fill="#b2b2b2" d="M238-95c0 69-44 99-111 99C63 4 22-25 22-93v-155h51v151c-1 38 19 59 55 60 90 1 49-130 58-211h52v153" id="bP"/><path fill="#b2b2b2" d="M230 0l2-204L168 0h-37L68-204 70 0H24v-248h70l56 185 57-185h69V0h-46" id="bQ"/><path fill="#b2b2b2" d="M24 0v-248h52v208h133V0H24" id="bR"/><g id="L"><use transform="matrix(0.08580246913580246,0,0,0.08580246913580246,0,0)" xlink:href="#bP"/><use transform="matrix(0.08580246913580246,0,0,0.08580246913580246,22.222839506172836,0)" xlink:href="#bQ"/><use transform="matrix(0.08580246913580246,0,0,0.08580246913580246,47.877777777777766,0)" xlink:href="#bR"/></g><path fill="#b2b2b2" d="M197 0v-115H63V0H30v-248h33v105h134v-105h34V0h-34" id="bS"/><path fill="#b2b2b2" d="M100-194c63 0 86 42 84 106H49c0 40 14 67 53 68 26 1 43-12 49-29l28 8c-11 28-37 45-77 45C44 4 14-33 15-96c1-61 26-98 85-98zm52 81c6-60-76-77-97-28-3 7-6 17-6 28h103" id="bT"/><path fill="#b2b2b2" d="M24-231v-30h32v30H24zM24 0v-190h32V0H24" id="bU"/><path fill="#b2b2b2" d="M24 0v-261h32V0H24" id="bV"/><path fill="#b2b2b2" d="M114-163C36-179 61-72 57 0H25l-1-190h30c1 12-1 29 2 39 6-27 23-49 58-41v29" id="bW"/><path fill="#b2b2b2" d="M68-38c1 34 0 65-14 84H32c9-13 17-26 17-46H33v-38h35" id="bX"/><g id="M"><use transform="matrix(0.05005144032921811,0,0,0.05005144032921811,0,0)" xlink:href="#bS"/><use transform="matrix(0.05005144032921811,0,0,0.05005144032921811,12.96332304526749,0)" xlink:href="#bT"/><use transform="matrix(0.05005144032921811,0,0,0.05005144032921811,22.97361111111111,0)" xlink:href="#bU"/><use transform="matrix(0.05005144032921811,0,0,0.05005144032921811,26.927674897119342,0)" xlink:href="#bV"/><use transform="matrix(0.05005144032921811,0,0,0.05005144032921811,30.881738683127573,0)" xlink:href="#bT"/><use transform="matrix(0.05005144032921811,0,0,0.05005144032921811,40.89202674897119,0)" xlink:href="#bW"/><use transform="matrix(0.05005144032921811,0,0,0.05005144032921811,45.84711934156378,0)" xlink:href="#bX"/></g><path fill="#b2b2b2" d="M185-189c-5-48-123-54-124 2 14 75 158 14 163 119 3 78-121 87-175 55-17-10-28-26-33-46l33-7c5 56 141 63 141-1 0-78-155-14-162-118-5-82 145-84 179-34 5 7 8 16 11 25" id="bY"/><path fill="#b2b2b2" d="M108 0H70L1-190h34L89-25l56-165h34" id="bZ"/><path fill="#b2b2b2" d="M100-194c62-1 85 37 85 99 1 63-27 99-86 99S16-35 15-95c0-66 28-99 85-99zM99-20c44 1 53-31 53-75 0-43-8-75-51-75s-53 32-53 75 10 74 51 75" id="ca"/><g id="N"><use transform="matrix(0.05005144032921811,0,0,0.05005144032921811,0,0)" xlink:href="#bY"/><use transform="matrix(0.05005144032921811,0,0,0.05005144032921811,12.012345679012345,0)" xlink:href="#bU"/><use transform="matrix(0.05005144032921811,0,0,0.05005144032921811,15.966409465020575,0)" xlink:href="#bV"/><use transform="matrix(0.05005144032921811,0,0,0.05005144032921811,19.920473251028806,0)" xlink:href="#bZ"/><use transform="matrix(0.05005144032921811,0,0,0.05005144032921811,28.929732510288066,0)" xlink:href="#bU"/><use transform="matrix(0.05005144032921811,0,0,0.05005144032921811,32.883796296296296,0)" xlink:href="#ca"/></g><path fill="#b2b2b2" d="M32 76v-337h29V76H32" id="cb"/><use transform="matrix(0.05005144032921811,0,0,0.05005144032921811,0,0)" xlink:href="#cb" id="O"/><path fill="#b2b2b2" d="M205 0l-28-72H64L36 0H1l101-248h38L239 0h-34zm-38-99l-47-123c-12 45-31 82-46 123h93" id="cc"/><path fill="#b2b2b2" d="M115-194c55 1 70 41 70 98S169 2 115 4C84 4 66-9 55-30l1 105H24l-1-265h31l2 30c10-21 28-34 59-34zm-8 174c40 0 45-34 45-75s-6-73-45-74c-42 0-51 32-51 76 0 43 10 73 51 73" id="cd"/><g id="P"><use transform="matrix(0.05005144032921811,0,0,0.05005144032921811,0,0)" xlink:href="#cc"/><use transform="matrix(0.05005144032921811,0,0,0.05005144032921811,12.012345679012345,0)" xlink:href="#cd"/><use transform="matrix(0.05005144032921811,0,0,0.05005144032921811,22.022633744855966,0)" xlink:href="#bW"/><use transform="matrix(0.05005144032921811,0,0,0.05005144032921811,27.97875514403292,0)" xlink:href="#bU"/><use transform="matrix(0.05005144032921811,0,0,0.05005144032921811,31.93281893004115,0)" xlink:href="#bV"/></g><path fill="#b2b2b2" d="M99-251c64 0 84 50 84 122C183-37 130 33 47-8c-14-7-20-23-25-40l30-5c6 39 69 39 84 7 9-19 16-44 16-74-10 22-31 35-62 35-49 0-73-33-73-83 0-54 28-83 82-83zm-1 141c31-1 51-18 51-49 0-36-14-67-51-67-34 0-49 23-49 58 0 34 15 58 49 58" id="ce"/><g id="Q"><use transform="matrix(0.05005144032921811,0,0,0.05005144032921811,0,0)" xlink:href="#ce"/><use transform="matrix(0.05005144032921811,0,0,0.05005144032921811,10.010288065843621,0)" xlink:href="#bX"/></g><path fill="#b2b2b2" d="M101-251c82-7 93 87 43 132L82-64C71-53 59-42 53-27h129V0H18c2-99 128-94 128-182 0-28-16-43-45-43s-46 15-49 41l-32-3c6-41 34-60 81-64" id="cf"/><path fill="#b2b2b2" d="M101-251c68 0 85 55 85 127S166 4 100 4C33 4 14-52 14-124c0-73 17-127 87-127zm-1 229c47 0 54-49 54-102s-4-102-53-102c-51 0-55 48-55 102 0 53 5 102 54 102" id="cg"/><g id="R"><use transform="matrix(0.05005144032921811,0,0,0.05005144032921811,0,0)" xlink:href="#cf"/><use transform="matrix(0.05005144032921811,0,0,0.05005144032921811,10.010288065843621,0)" xlink:href="#cg"/><use transform="matrix(0.05005144032921811,0,0,0.05005144032921811,20.020576131687243,0)" xlink:href="#cf"/><use transform="matrix(0.05005144032921811,0,0,0.05005144032921811,30.030864197530864,0)" xlink:href="#cg"/></g><path d="M15-91v-56l181-69v40L49-119l147 57v40" id="ch"/><path d="M133-34C117-15 103 5 69 4 32 3 11-16 11-54c-1-60 55-63 116-61 1-26-3-47-28-47-18 1-26 9-28 27l-52-2c7-38 36-58 82-57s74 22 75 68l1 82c-1 14 12 18 25 15v27c-30 8-71 5-69-32zm-48 3c29 0 43-24 42-57-32 0-66-3-65 30 0 17 8 27 23 27" id="ci"/><path d="M135-194c52 0 70 43 70 98 0 56-19 99-73 100-30 1-46-15-58-35L72 0H24l1-261h50v104c11-23 29-37 60-37zM114-30c31 0 40-27 40-66 0-37-7-63-39-63s-41 28-41 65c0 36 8 64 40 64" id="cj"/><path d="M137-138c1-29-70-34-71-4 15 46 118 7 119 86 1 83-164 76-172 9l43-7c4 19 20 25 44 25 33 8 57-30 24-41C81-84 22-81 20-136c-2-80 154-74 161-7" id="ck"/><path d="M115-3C79 11 28 4 28-45v-112H4v-33h27l15-45h31v45h36v33H77v99c-1 23 16 31 38 25v30" id="cl"/><path d="M135-150c-39-12-60 13-60 57V0H25l-1-190h47c2 13-1 29 3 40 6-28 27-53 61-41v41" id="cm"/><path d="M190-63c-7 42-38 67-86 67-59 0-84-38-90-98-12-110 154-137 174-36l-49 2c-2-19-15-32-35-32-30 0-35 28-38 64-6 74 65 87 74 30" id="cn"/><path d="M15-22v-40l146-57-146-57v-40l181 69v56" id="co"/><g id="S"><use transform="matrix(0.05,0,0,0.05,0,0)" xlink:href="#ch"/><use transform="matrix(0.05,0,0,0.05,10.5,0)" xlink:href="#ch"/><use transform="matrix(0.05,0,0,0.05,21,0)" xlink:href="#ci"/><use transform="matrix(0.05,0,0,0.05,31,0)" xlink:href="#cj"/><use transform="matrix(0.05,0,0,0.05,41.95,0)" xlink:href="#ck"/><use transform="matrix(0.05,0,0,0.05,51.95,0)" xlink:href="#cl"/><use transform="matrix(0.05,0,0,0.05,57.900000000000006,0)" xlink:href="#cm"/><use transform="matrix(0.05,0,0,0.05,64.9,0)" xlink:href="#ci"/><use transform="matrix(0.05,0,0,0.05,74.9,0)" xlink:href="#cn"/><use transform="matrix(0.05,0,0,0.05,84.9,0)" xlink:href="#cl"/><use transform="matrix(0.05,0,0,0.05,90.85000000000001,0)" xlink:href="#co"/><use transform="matrix(0.05,0,0,0.05,101.35000000000001,0)" xlink:href="#co"/></g><path d="M24-248c93 1 206-16 204 79-1 75-69 88-152 82V0H24v-248zm52 121c47 0 100 7 100-41 0-47-54-39-100-39v80" id="cp"/><path d="M185-48c-13 30-37 53-82 52C43 2 14-33 14-96s30-98 90-98c62 0 83 45 84 108H66c0 31 8 55 39 56 18 0 30-7 34-22zm-45-69c5-46-57-63-70-21-2 6-4 13-4 21h74" id="cq"/><path d="M110-194c64 0 96 36 96 99 0 64-35 99-97 99-61 0-95-36-95-99 0-62 34-99 96-99zm-1 164c35 0 45-28 45-65 0-40-10-65-43-65-34 0-45 26-45 65 0 36 10 65 43 65" id="cr"/><path d="M135-194c87-1 58 113 63 194h-50c-7-57 23-157-34-157-59 0-34 97-39 157H25l-1-190h47c2 12-1 28 3 38 12-26 28-41 61-42" id="cs"/><g id="T"><use transform="matrix(0.05,0,0,0.05,0,0)" xlink:href="#cp"/><use transform="matrix(0.05,0,0,0.05,12,0)" xlink:href="#cq"/><use transform="matrix(0.05,0,0,0.05,22,0)" xlink:href="#cm"/><use transform="matrix(0.05,0,0,0.05,29,0)" xlink:href="#ck"/><use transform="matrix(0.05,0,0,0.05,39,0)" xlink:href="#cr"/><use transform="matrix(0.05,0,0,0.05,49.95,0)" xlink:href="#cs"/><use transform="matrix(0.05,0,0,0.05,60.900000000000006,0)" xlink:href="#ci"/></g><path fill="#333" d="M115-194c53 0 69 39 70 98 0 66-23 100-70 100C84 3 66-7 56-30L54 0H23l1-261h32v101c10-23 28-34 59-34zm-8 174c40 0 45-34 45-75 0-40-5-75-45-74-42 0-51 32-51 76 0 43 10 73 51 73" id="ct"/><g id="U"><use transform="matrix(0.05720164609053498,0,0,0.05720164609053498,0,0)" xlink:href="#aO"/><use transform="matrix(0.05720164609053498,0,0,0.05720164609053498,11.440329218106996,0)" xlink:href="#aQ"/><use transform="matrix(0.05720164609053498,0,0,0.05720164609053498,22.88065843621399,0)" xlink:href="#bc"/><use transform="matrix(0.05720164609053498,0,0,0.05720164609053498,34.32098765432099,0)" xlink:href="#ba"/><use transform="matrix(0.05720164609053498,0,0,0.05720164609053498,51.42427983539095,0)" xlink:href="#ct"/><use transform="matrix(0.05720164609053498,0,0,0.05720164609053498,62.86460905349794,0)" xlink:href="#be"/><use transform="matrix(0.05720164609053498,0,0,0.05720164609053498,69.6716049382716,0)" xlink:href="#aV"/></g><path fill="#333" d="M135-143c-3-34-86-38-87 0 15 53 115 12 119 90S17 21 10-45l28-5c4 36 97 45 98 0-10-56-113-15-118-90-4-57 82-63 122-42 12 7 21 19 24 35" id="cu"/><g id="V"><use transform="matrix(0.05720164609053498,0,0,0.05720164609053498,0,0)" xlink:href="#cu"/><use transform="matrix(0.05720164609053498,0,0,0.05720164609053498,10.296296296296296,0)" xlink:href="#aR"/><use transform="matrix(0.05720164609053498,0,0,0.05720164609053498,16.016460905349795,0)" xlink:href="#be"/><use transform="matrix(0.05720164609053498,0,0,0.05720164609053498,22.82345679012346,0)" xlink:href="#aS"/><use transform="matrix(0.05720164609053498,0,0,0.05720164609053498,27.34238683127572,0)" xlink:href="#aQ"/><use transform="matrix(0.05720164609053498,0,0,0.05720164609053498,38.782716049382714,0)" xlink:href="#aT"/></g><g id="W"><use transform="matrix(0.05720164609053498,0,0,0.05720164609053498,0,0)" xlink:href="#aO"/><use transform="matrix(0.05720164609053498,0,0,0.05720164609053498,11.440329218106996,0)" xlink:href="#aP"/><use transform="matrix(0.05720164609053498,0,0,0.05720164609053498,22.88065843621399,0)" xlink:href="#bz"/><use transform="matrix(0.05720164609053498,0,0,0.05720164609053498,34.32098765432099,0)" xlink:href="#aV"/><use transform="matrix(0.05720164609053498,0,0,0.05720164609053498,45.76131687242798,0)" xlink:href="#bb"/><use transform="matrix(0.05720164609053498,0,0,0.05720164609053498,50.28024691358024,0)" xlink:href="#bb"/><use transform="matrix(0.05720164609053498,0,0,0.05720164609053498,54.7991769547325,0)" xlink:href="#aS"/><use transform="matrix(0.05720164609053498,0,0,0.05720164609053498,59.31810699588476,0)" xlink:href="#aW"/><use transform="matrix(0.05720164609053498,0,0,0.05720164609053498,70.75843621399176,0)" xlink:href="#bc"/><use transform="matrix(0.05720164609053498,0,0,0.05720164609053498,82.19876543209875,0)" xlink:href="#aX"/></g><path fill="#333" d="M101-234c-31-9-42 10-38 44h38v23H63V0H32v-167H5v-23h27c-7-52 17-82 69-68v24" id="cv"/><path fill="#333" d="M96-169c-40 0-48 33-48 73s9 75 48 75c24 0 41-14 43-38l32 2c-6 37-31 61-74 61-59 0-76-41-82-99-10-93 101-131 147-64 4 7 5 14 7 22l-32 3c-4-21-16-35-41-35" id="cw"/><path fill="#333" d="M106-169C34-169 62-67 57 0H25v-261h32l-1 103c12-21 28-36 61-36 89 0 53 116 60 194h-32v-121c2-32-8-49-39-48" id="cx"/><path fill="#333" d="M190 0L58-211 59 0H30v-248h39L202-35l-2-213h31V0h-41" id="cy"/><g id="X"><use transform="matrix(0.05720164609053498,0,0,0.05720164609053498,0,0)" xlink:href="#aO"/><use transform="matrix(0.05720164609053498,0,0,0.05720164609053498,11.440329218106996,0)" xlink:href="#cv"/><use transform="matrix(0.05720164609053498,0,0,0.05720164609053498,17.160493827160494,0)" xlink:href="#aV"/><use transform="matrix(0.05720164609053498,0,0,0.05720164609053498,28.60082304526749,0)" xlink:href="#cw"/><use transform="matrix(0.05720164609053498,0,0,0.05720164609053498,38.89711934156379,0)" xlink:href="#cx"/><use transform="matrix(0.05720164609053498,0,0,0.05720164609053498,50.33744855967078,0)" xlink:href="#aP"/><use transform="matrix(0.05720164609053498,0,0,0.05720164609053498,61.77777777777778,0)" xlink:href="#cy"/><use transform="matrix(0.05720164609053498,0,0,0.05720164609053498,76.59300411522634,0)" xlink:href="#aP"/><use transform="matrix(0.05720164609053498,0,0,0.05720164609053498,88.03333333333333,0)" xlink:href="#cw"/><use transform="matrix(0.05720164609053498,0,0,0.05720164609053498,98.32962962962962,0)" xlink:href="#aX"/></g><g id="Y"><use transform="matrix(0.05720164609053498,0,0,0.05720164609053498,0,0)" xlink:href="#aY"/><use transform="matrix(0.05720164609053498,0,0,0.05720164609053498,14.815226337448559,0)" xlink:href="#aP"/><use transform="matrix(0.05720164609053498,0,0,0.05720164609053498,26.255555555555553,0)" xlink:href="#aR"/><use transform="matrix(0.05720164609053498,0,0,0.05720164609053498,31.97572016460905,0)" xlink:href="#aV"/><use transform="matrix(0.05720164609053498,0,0,0.05720164609053498,43.41604938271605,0)" xlink:href="#aZ"/><use transform="matrix(0.05720164609053498,0,0,0.05720164609053498,55.199588477366255,0)" xlink:href="#aS"/><use transform="matrix(0.05720164609053498,0,0,0.05720164609053498,59.718518518518515,0)" xlink:href="#ba"/><use transform="matrix(0.05720164609053498,0,0,0.05720164609053498,76.82181069958848,0)" xlink:href="#aV"/></g><path fill="#333" d="M248-139C247-14 144 9 11 0l48-248c105-6 190 8 189 109zm-34 0c1-70-52-87-126-82L50-27c98 7 163-21 164-112" id="cz"/><g id="Z"><use transform="matrix(0.05720164609053498,0,0,0.05720164609053498,0,0)" xlink:href="#cz"/><use transform="matrix(0.05720164609053498,0,0,0.05720164609053498,14.815226337448559,0)" xlink:href="#aI"/><use transform="matrix(0.05720164609053498,0,0,0.05720164609053498,26.255555555555553,0)" xlink:href="#bn"/><use transform="matrix(0.05720164609053498,0,0,0.05720164609053498,36.55185185185185,0)" xlink:href="#aE"/><use transform="matrix(0.05720164609053498,0,0,0.05720164609053498,47.992181069958846,0)" xlink:href="#aL"/><use transform="matrix(0.05720164609053498,0,0,0.05720164609053498,59.43251028806584,0)" xlink:href="#aM"/><use transform="matrix(0.05720164609053498,0,0,0.05720164609053498,65.15267489711934,0)" xlink:href="#aE"/></g><g id="aa"><use transform="matrix(0.05720164609053498,0,0,0.05720164609053498,0,0)" xlink:href="#cz"/><use transform="matrix(0.05720164609053498,0,0,0.05720164609053498,14.815226337448559,0)" xlink:href="#aK"/><use transform="matrix(0.05720164609053498,0,0,0.05720164609053498,19.334156378600824,0)" xlink:href="#bx"/><use transform="matrix(0.05720164609053498,0,0,0.05720164609053498,26.141152263374487,0)" xlink:href="#aE"/><use transform="matrix(0.05720164609053498,0,0,0.05720164609053498,37.58148148148148,0)" xlink:href="#bn"/><use transform="matrix(0.05720164609053498,0,0,0.05720164609053498,47.87777777777778,0)" xlink:href="#aM"/><use transform="matrix(0.05720164609053498,0,0,0.05720164609053498,53.59794238683128,0)" xlink:href="#aK"/><use transform="matrix(0.05720164609053498,0,0,0.05720164609053498,58.11687242798354,0)" xlink:href="#by"/><use transform="matrix(0.05720164609053498,0,0,0.05720164609053498,68.41316872427983,0)" xlink:href="#aI"/></g><path fill="#333" d="M219-77C219 17 104-2 11 0l48-248c73 2 169-15 169 57 0 38-24 54-60 60 29 5 51 21 51 54zm-26-111c0-44-62-31-105-33l-16 79c55 0 121 9 121-46zm-7 110c-1-49-69-36-119-38L50-27c61-1 137 12 136-51" id="cA"/><g id="ab"><use transform="matrix(0.05720164609053498,0,0,0.05720164609053498,0,0)" xlink:href="#cA"/><use transform="matrix(0.05720164609053498,0,0,0.05720164609053498,13.728395061728394,0)" xlink:href="#aE"/><use transform="matrix(0.05720164609053498,0,0,0.05720164609053498,25.168724279835388,0)" xlink:href="#br"/><use transform="matrix(0.05720164609053498,0,0,0.05720164609053498,36.609053497942384,0)" xlink:href="#aE"/><use transform="matrix(0.05720164609053498,0,0,0.05720164609053498,48.04938271604938,0)" xlink:href="#aD"/></g><path fill="#333" d="M194-120c59 52 2 134-86 124-53-6-90-18-98-63l31-7c8 30 29 43 70 43 46 0 84-17 71-62-32-43-135-20-137-98-3-89 178-90 191-16l-30 9c-8-48-127-53-127 5 0 53 81 35 115 65" id="cB"/><g id="ac"><use transform="matrix(0.05720164609053498,0,0,0.05720164609053498,0,0)" xlink:href="#cB"/><use transform="matrix(0.05720164609053498,0,0,0.05720164609053498,13.728395061728394,0)" xlink:href="#aG"/><use transform="matrix(0.05720164609053498,0,0,0.05720164609053498,25.168724279835388,0)" xlink:href="#aD"/><use transform="matrix(0.05720164609053498,0,0,0.05720164609053498,29.687654320987654,0)" xlink:href="#aG"/><use transform="matrix(0.05720164609053498,0,0,0.05720164609053498,41.12798353909464,0)" xlink:href="#bx"/><use transform="matrix(0.05720164609053498,0,0,0.05720164609053498,47.934979423868306,0)" xlink:href="#aK"/><use transform="matrix(0.05720164609053498,0,0,0.05720164609053498,52.45390946502057,0)" xlink:href="#aI"/></g><g id="ad"><use transform="matrix(0.05720164609053498,0,0,0.05720164609053498,0,0)" xlink:href="#aO"/><use transform="matrix(0.05720164609053498,0,0,0.05720164609053498,11.440329218106996,0)" xlink:href="#ct"/><use transform="matrix(0.05720164609053498,0,0,0.05720164609053498,22.88065843621399,0)" xlink:href="#be"/><use transform="matrix(0.05720164609053498,0,0,0.05720164609053498,29.687654320987654,0)" xlink:href="#aU"/><use transform="matrix(0.05720164609053498,0,0,0.05720164609053498,41.12798353909465,0)" xlink:href="#aR"/><use transform="matrix(0.05720164609053498,0,0,0.05720164609053498,46.84814814814815,0)" xlink:href="#bc"/></g><g id="ae"><use transform="matrix(0.05720164609053498,0,0,0.05720164609053498,0,0)" xlink:href="#aW"/><use transform="matrix(0.05720164609053498,0,0,0.05720164609053498,11.440329218106996,0)" xlink:href="#bc"/><use transform="matrix(0.05720164609053498,0,0,0.05720164609053498,22.88065843621399,0)" xlink:href="#aU"/><use transform="matrix(0.05720164609053498,0,0,0.05720164609053498,34.32098765432099,0)" xlink:href="#ct"/><use transform="matrix(0.05720164609053498,0,0,0.05720164609053498,45.76131687242798,0)" xlink:href="#bb"/><use transform="matrix(0.05720164609053498,0,0,0.05720164609053498,50.28024691358024,0)" xlink:href="#aV"/></g><g id="af"><use transform="matrix(0.05720164609053498,0,0,0.05720164609053498,0,0)" xlink:href="#aO"/><use transform="matrix(0.05720164609053498,0,0,0.05720164609053498,11.440329218106996,0)" xlink:href="#aW"/><use transform="matrix(0.05720164609053498,0,0,0.05720164609053498,22.88065843621399,0)" xlink:href="#aV"/><use transform="matrix(0.05720164609053498,0,0,0.05720164609053498,34.32098765432099,0)" xlink:href="#cu"/><use transform="matrix(0.05720164609053498,0,0,0.05720164609053498,44.617283950617285,0)" xlink:href="#cw"/><use transform="matrix(0.05720164609053498,0,0,0.05720164609053498,54.91358024691358,0)" xlink:href="#aU"/><use transform="matrix(0.05720164609053498,0,0,0.05720164609053498,66.35390946502058,0)" xlink:href="#aV"/><use transform="matrix(0.05720164609053498,0,0,0.05720164609053498,77.79423868312757,0)" xlink:href="#aQ"/><use transform="matrix(0.05720164609053498,0,0,0.05720164609053498,89.23456790123457,0)" xlink:href="#aR"/><use transform="matrix(0.05720164609053498,0,0,0.05720164609053498,94.95473251028807,0)" xlink:href="#bc"/><use transform="matrix(0.05720164609053498,0,0,0.05720164609053498,106.39506172839506,0)" xlink:href="#cu"/></g><g id="ag"><use transform="matrix(0.05720164609053498,0,0,0.05720164609053498,0,0)" xlink:href="#aO"/><use transform="matrix(0.05720164609053498,0,0,0.05720164609053498,11.440329218106996,0)" xlink:href="#cv"/><use transform="matrix(0.05720164609053498,0,0,0.05720164609053498,17.160493827160494,0)" xlink:href="#aV"/><use transform="matrix(0.05720164609053498,0,0,0.05720164609053498,28.60082304526749,0)" xlink:href="#cw"/><use transform="matrix(0.05720164609053498,0,0,0.05720164609053498,38.89711934156379,0)" xlink:href="#cx"/><use transform="matrix(0.05720164609053498,0,0,0.05720164609053498,50.33744855967078,0)" xlink:href="#aP"/></g><g id="ah"><use transform="matrix(0.05720164609053498,0,0,0.05720164609053498,0,0)" xlink:href="#aO"/><use transform="matrix(0.05720164609053498,0,0,0.05720164609053498,11.440329218106996,0)" xlink:href="#cw"/><use transform="matrix(0.05720164609053498,0,0,0.05720164609053498,21.736625514403293,0)" xlink:href="#bc"/><use transform="matrix(0.05720164609053498,0,0,0.05720164609053498,33.17695473251029,0)" xlink:href="#aW"/><use transform="matrix(0.05720164609053498,0,0,0.05720164609053498,44.617283950617285,0)" xlink:href="#aS"/><use transform="matrix(0.05720164609053498,0,0,0.05720164609053498,49.13621399176955,0)" xlink:href="#aT"/><use transform="matrix(0.05720164609053498,0,0,0.05720164609053498,60.57654320987654,0)" xlink:href="#bc"/><use transform="matrix(0.05720164609053498,0,0,0.05720164609053498,72.01687242798354,0)" xlink:href="#aZ"/><use transform="matrix(0.05720164609053498,0,0,0.05720164609053498,83.80041152263374,0)" xlink:href="#be"/><use transform="matrix(0.05720164609053498,0,0,0.05720164609053498,90.6074074074074,0)" xlink:href="#aP"/><use transform="matrix(0.05720164609053498,0,0,0.05720164609053498,102.04773662551439,0)" xlink:href="#aQ"/><use transform="matrix(0.05720164609053498,0,0,0.05720164609053498,113.48806584362138,0)" xlink:href="#cu"/><use transform="matrix(0.05720164609053498,0,0,0.05720164609053498,123.78436213991766,0)" xlink:href="#cv"/><use transform="matrix(0.05720164609053498,0,0,0.05720164609053498,129.50452674897116,0)" xlink:href="#aV"/><use transform="matrix(0.05720164609053498,0,0,0.05720164609053498,140.94485596707815,0)" xlink:href="#be"/><use transform="matrix(0.05720164609053498,0,0,0.05720164609053498,147.75185185185182,0)" xlink:href="#aV"/><use transform="matrix(0.05720164609053498,0,0,0.05720164609053498,159.19218106995882,0)" xlink:href="#aQ"/><use transform="matrix(0.05720164609053498,0,0,0.05720164609053498,170.63251028806582,0)" xlink:href="#cw"/><use transform="matrix(0.05720164609053498,0,0,0.05720164609053498,180.92880658436212,0)" xlink:href="#aS"/><use transform="matrix(0.05720164609053498,0,0,0.05720164609053498,185.44773662551438,0)" xlink:href="#aP"/></g><path fill="#333" d="M52-101C46-14 166-7 216-51l9-45h-74l6-28h105l-18 87C217-12 181 4 130 4 60 4 18-31 18-101c0-106 78-167 188-146 30 6 48 27 59 54l-34 9c-10-26-31-41-67-40-75 1-107 50-112 123" id="cC"/><path fill="#333" d="M173 0L80-213 41 0H11l48-248h37l94 214 40-214h30L212 0h-39" id="cD"/><g id="aj"><use transform="matrix(0.05720164609053498,0,0,0.05720164609053498,0,0)" xlink:href="#cC"/><use transform="matrix(0.05720164609053498,0,0,0.05720164609053498,16.016460905349792,0)" xlink:href="#aE"/><use transform="matrix(0.05720164609053498,0,0,0.05720164609053498,27.456790123456788,0)" xlink:href="#aM"/><use transform="matrix(0.05720164609053498,0,0,0.05720164609053498,33.17695473251028,0)" xlink:href="#cB"/><use transform="matrix(0.05720164609053498,0,0,0.05720164609053498,46.905349794238674,0)" xlink:href="#aG"/><use transform="matrix(0.05720164609053498,0,0,0.05720164609053498,58.34567901234567,0)" xlink:href="#aD"/><use transform="matrix(0.05720164609053498,0,0,0.05720164609053498,62.86460905349793,0)" xlink:href="#aG"/><use transform="matrix(0.05720164609053498,0,0,0.05720164609053498,74.30493827160493,0)" xlink:href="#bx"/><use transform="matrix(0.05720164609053498,0,0,0.05720164609053498,81.11193415637858,0)" xlink:href="#aK"/><use transform="matrix(0.05720164609053498,0,0,0.05720164609053498,85.63086419753084,0)" xlink:href="#aI"/><use transform="matrix(0.05720164609053498,0,0,0.05720164609053498,97.07119341563784,0)" xlink:href="#cD"/><use transform="matrix(0.05720164609053498,0,0,0.05720164609053498,111.8864197530864,0)" xlink:href="#aE"/><use transform="matrix(0.05720164609053498,0,0,0.05720164609053498,123.32674897119338,0)" xlink:href="#aM"/><use transform="matrix(0.05720164609053498,0,0,0.05720164609053498,129.0469135802469,0)" xlink:href="#aI"/><use transform="matrix(0.05720164609053498,0,0,0.05720164609053498,140.4872427983539,0)" xlink:href="#bk"/><use transform="matrix(0.05720164609053498,0,0,0.05720164609053498,147.29423868312756,0)" xlink:href="#bo"/></g><g id="ak"><use transform="matrix(0.05720164609053498,0,0,0.05720164609053498,0,0)" xlink:href="#br"/><use transform="matrix(0.05720164609053498,0,0,0.05720164609053498,11.440329218106996,0)" xlink:href="#aI"/><use transform="matrix(0.05720164609053498,0,0,0.05720164609053498,22.88065843621399,0)" xlink:href="#bi"/><use transform="matrix(0.05720164609053498,0,0,0.05720164609053498,34.32098765432099,0)" xlink:href="#bm"/><use transform="matrix(0.05720164609053498,0,0,0.05720164609053498,45.76131687242798,0)" xlink:href="#aD"/><use transform="matrix(0.05720164609053498,0,0,0.05720164609053498,50.28024691358024,0)" xlink:href="#aE"/></g><g id="al"><use transform="matrix(0.05005144032921811,0,0,0.05005144032921811,0,0)" xlink:href="#bA"/><use transform="matrix(0.05005144032921811,0,0,0.05005144032921811,10.010288065843621,0)" xlink:href="#bB"/><use transform="matrix(0.05005144032921811,0,0,0.05005144032921811,15.015432098765432,0)" xlink:href="#bB"/><use transform="matrix(0.05005144032921811,0,0,0.05005144032921811,20.020576131687243,0)" xlink:href="#bD"/></g></defs></g></svg>